G04 #@! TF.GenerationSoftware,KiCad,Pcbnew,7.0.10*
G04 #@! TF.CreationDate,2024-03-18T20:49:09-04:00*
G04 #@! TF.ProjectId,GR8RAM,47523852-414d-42e6-9b69-6361645f7063,1.0*
G04 #@! TF.SameCoordinates,Original*
G04 #@! TF.FileFunction,Legend,Bot*
G04 #@! TF.FilePolarity,Positive*
%FSLAX46Y46*%
G04 Gerber Fmt 4.6, Leading zero omitted, Abs format (unit mm)*
G04 Created by KiCad (PCBNEW 7.0.10) date 2024-03-18 20:49:09*
%MOMM*%
%LPD*%
G01*
G04 APERTURE LIST*
G04 Aperture macros list*
%AMRoundRect*
0 Rectangle with rounded corners*
0 $1 Rounding radius*
0 $2 $3 $4 $5 $6 $7 $8 $9 X,Y pos of 4 corners*
0 Add a 4 corners polygon primitive as box body*
4,1,4,$2,$3,$4,$5,$6,$7,$8,$9,$2,$3,0*
0 Add four circle primitives for the rounded corners*
1,1,$1+$1,$2,$3*
1,1,$1+$1,$4,$5*
1,1,$1+$1,$6,$7*
1,1,$1+$1,$8,$9*
0 Add four rect primitives between the rounded corners*
20,1,$1+$1,$2,$3,$4,$5,0*
20,1,$1+$1,$4,$5,$6,$7,0*
20,1,$1+$1,$6,$7,$8,$9,0*
20,1,$1+$1,$8,$9,$2,$3,0*%
G04 Aperture macros list end*
%ADD10C,0.203200*%
%ADD11C,0.120000*%
%ADD12C,0.000000*%
%ADD13RoundRect,0.419100X0.419100X3.327100X-0.419100X3.327100X-0.419100X-3.327100X0.419100X-3.327100X0*%
%ADD14C,2.152400*%
%ADD15C,1.448000*%
%ADD16C,2.527300*%
%ADD17C,1.143000*%
%ADD18C,0.939800*%
G04 APERTURE END LIST*
D10*
X134396237Y-129473649D02*
X133854371Y-129473649D01*
X133854371Y-129473649D02*
X134396237Y-130286449D01*
X134396237Y-130286449D02*
X133854371Y-130286449D01*
X133544733Y-130286449D02*
X133544733Y-129473649D01*
X133080276Y-130286449D02*
X133428618Y-129821992D01*
X133080276Y-129473649D02*
X133544733Y-129938106D01*
X132693228Y-130247745D02*
X132693228Y-130286449D01*
X132693228Y-130286449D02*
X132731933Y-130363859D01*
X132731933Y-130363859D02*
X132770637Y-130402564D01*
X131299856Y-129512354D02*
X131377266Y-129473649D01*
X131377266Y-129473649D02*
X131493380Y-129473649D01*
X131493380Y-129473649D02*
X131609494Y-129512354D01*
X131609494Y-129512354D02*
X131686904Y-129589764D01*
X131686904Y-129589764D02*
X131725609Y-129667173D01*
X131725609Y-129667173D02*
X131764313Y-129821992D01*
X131764313Y-129821992D02*
X131764313Y-129938106D01*
X131764313Y-129938106D02*
X131725609Y-130092925D01*
X131725609Y-130092925D02*
X131686904Y-130170335D01*
X131686904Y-130170335D02*
X131609494Y-130247745D01*
X131609494Y-130247745D02*
X131493380Y-130286449D01*
X131493380Y-130286449D02*
X131415971Y-130286449D01*
X131415971Y-130286449D02*
X131299856Y-130247745D01*
X131299856Y-130247745D02*
X131261152Y-130209040D01*
X131261152Y-130209040D02*
X131261152Y-129938106D01*
X131261152Y-129938106D02*
X131415971Y-129938106D01*
X130641875Y-129860697D02*
X130912809Y-129860697D01*
X130912809Y-130286449D02*
X130912809Y-129473649D01*
X130912809Y-129473649D02*
X130525761Y-129473649D01*
X72819380Y-129860697D02*
X72703266Y-129899402D01*
X72703266Y-129899402D02*
X72664561Y-129938106D01*
X72664561Y-129938106D02*
X72625857Y-130015516D01*
X72625857Y-130015516D02*
X72625857Y-130131630D01*
X72625857Y-130131630D02*
X72664561Y-130209040D01*
X72664561Y-130209040D02*
X72703266Y-130247745D01*
X72703266Y-130247745D02*
X72780676Y-130286449D01*
X72780676Y-130286449D02*
X73090314Y-130286449D01*
X73090314Y-130286449D02*
X73090314Y-129473649D01*
X73090314Y-129473649D02*
X72819380Y-129473649D01*
X72819380Y-129473649D02*
X72741971Y-129512354D01*
X72741971Y-129512354D02*
X72703266Y-129551059D01*
X72703266Y-129551059D02*
X72664561Y-129628468D01*
X72664561Y-129628468D02*
X72664561Y-129705878D01*
X72664561Y-129705878D02*
X72703266Y-129783287D01*
X72703266Y-129783287D02*
X72741971Y-129821992D01*
X72741971Y-129821992D02*
X72819380Y-129860697D01*
X72819380Y-129860697D02*
X73090314Y-129860697D01*
X71851761Y-130286449D02*
X72316218Y-130286449D01*
X72083990Y-130286449D02*
X72083990Y-129473649D01*
X72083990Y-129473649D02*
X72161399Y-129589764D01*
X72161399Y-129589764D02*
X72238809Y-129667173D01*
X72238809Y-129667173D02*
X72316218Y-129705878D01*
X71348600Y-129473649D02*
X71271190Y-129473649D01*
X71271190Y-129473649D02*
X71193781Y-129512354D01*
X71193781Y-129512354D02*
X71155076Y-129551059D01*
X71155076Y-129551059D02*
X71116371Y-129628468D01*
X71116371Y-129628468D02*
X71077666Y-129783287D01*
X71077666Y-129783287D02*
X71077666Y-129976811D01*
X71077666Y-129976811D02*
X71116371Y-130131630D01*
X71116371Y-130131630D02*
X71155076Y-130209040D01*
X71155076Y-130209040D02*
X71193781Y-130247745D01*
X71193781Y-130247745D02*
X71271190Y-130286449D01*
X71271190Y-130286449D02*
X71348600Y-130286449D01*
X71348600Y-130286449D02*
X71426009Y-130247745D01*
X71426009Y-130247745D02*
X71464714Y-130209040D01*
X71464714Y-130209040D02*
X71503419Y-130131630D01*
X71503419Y-130131630D02*
X71542123Y-129976811D01*
X71542123Y-129976811D02*
X71542123Y-129783287D01*
X71542123Y-129783287D02*
X71503419Y-129628468D01*
X71503419Y-129628468D02*
X71464714Y-129551059D01*
X71464714Y-129551059D02*
X71426009Y-129512354D01*
X71426009Y-129512354D02*
X71348600Y-129473649D01*
X70768028Y-130054221D02*
X70380981Y-130054221D01*
X70845438Y-130286449D02*
X70574505Y-129473649D01*
X70574505Y-129473649D02*
X70303571Y-130286449D01*
D11*
X70294500Y-117729000D02*
X69659500Y-117729000D01*
X70294500Y-118364000D02*
X70294500Y-117729000D01*
%LPC*%
D12*
G36*
X139700000Y-139446000D02*
G01*
X139192000Y-139954000D01*
X74168000Y-139954000D01*
X73660000Y-139446000D01*
X73660000Y-132080000D01*
X139700000Y-132080000D01*
X139700000Y-139446000D01*
G37*
D13*
X137160000Y-135282000D03*
X134620000Y-135282000D03*
X132080000Y-135282000D03*
X129540000Y-135282000D03*
X127000000Y-135282000D03*
X124460000Y-135282000D03*
X121920000Y-135282000D03*
X119380000Y-135282000D03*
X116840000Y-135282000D03*
X114300000Y-135282000D03*
X111760000Y-135282000D03*
X109220000Y-135282000D03*
X106680000Y-135282000D03*
X104140000Y-135282000D03*
X101600000Y-135282000D03*
X99060000Y-135282000D03*
X96520000Y-135282000D03*
X93980000Y-135282000D03*
X91440000Y-135282000D03*
X88900000Y-135282000D03*
X86360000Y-135282000D03*
X83820000Y-135282000D03*
X81280000Y-135282000D03*
X78740000Y-135282000D03*
X76200000Y-135282000D03*
D14*
X140462000Y-129540000D03*
D15*
X140462000Y-82423000D03*
X57023000Y-84709000D03*
X143002000Y-127000000D03*
D16*
X71564500Y-117094000D03*
D17*
X69024500Y-117094000D03*
D16*
X66484500Y-117094000D03*
X71564500Y-122809000D03*
X66484500Y-122809000D03*
D17*
X70040500Y-124714000D03*
X68008500Y-124714000D03*
D15*
X48133000Y-127000000D03*
D16*
X71564500Y-117094000D03*
D17*
X69024500Y-117094000D03*
D16*
X66484500Y-117094000D03*
X71564500Y-122809000D03*
X66484500Y-122809000D03*
D17*
X70040500Y-124714000D03*
X68008500Y-124714000D03*
D18*
X69659500Y-118364000D03*
X69659500Y-119634000D03*
X69659500Y-120904000D03*
X69659500Y-122174000D03*
X69659500Y-123444000D03*
X68389500Y-123444000D03*
X68389500Y-122174000D03*
X68389500Y-120904000D03*
X68389500Y-119634000D03*
X68389500Y-118364000D03*
%LPD*%
M02*
