M48
; DRILL file {KiCad (5.1.2-1)-1} date Monday, July 29, 2019 at 08:34:47 PM
; FORMAT={-:-/ absolute / inch / decimal}
; #@! TF.CreationDate,2019-07-29T20:34:47-04:00
; #@! TF.GenerationSoftware,Kicad,Pcbnew,(5.1.2-1)-1
FMAT,2
INCH
T1C0.0118
T2C0.0157
T3C0.0300
T4C0.0433
%
G90
G05
T1
X1.65Y-3.985
X1.65Y-4.18
X1.65Y-4.315
X1.65Y-4.425
X1.65Y-4.515
X1.675Y-4.475
X1.675Y-4.575
X1.7Y-4.11
X1.725Y-4.2
X1.725Y-4.25
X1.725Y-4.3
X1.725Y-4.35
X1.725Y-4.4
X1.725Y-4.45
X1.725Y-4.5
X1.725Y-4.55
X1.735Y-3.915
X1.805Y-4.695
X1.825Y-3.915
X1.825Y-3.99
X1.85Y-3.805
X1.865Y-4.225
X1.875Y-4.375
X1.875Y-4.375
X1.875Y-4.425
X1.875Y-4.475
X1.875Y-4.525
X1.9Y-4.035
X1.91Y-3.97
X1.915Y-4.275
X1.935Y-3.7
X1.965Y-4.325
X2.0Y-4.375
X2.02Y-4.775
X2.03Y-4.425
X2.055Y-4.18
X2.065Y-4.475
X2.1Y-4.075
X2.1Y-4.525
X2.125Y-4.25
X2.15Y-4.3
X2.15Y-4.35
X2.195Y-3.95
X2.195Y-4.135
X2.225Y-3.835
X2.245Y-3.92
X2.275Y-4.3
X2.275Y-4.35
X2.275Y-4.5
X2.275Y-4.725
X2.28Y-4.105
X2.31Y-4.46
X2.315Y-4.525
X2.33Y-3.905
X2.335Y-4.3
X2.35Y-4.5
X2.37Y-4.58
X2.38Y-4.435
X2.385Y-4.02
X2.385Y-4.195
X2.385Y-4.365
X2.395Y-3.775
X2.4Y-3.825
X2.4Y-4.525
X2.405Y-4.4825
X2.425Y-4.6
X2.45Y-4.55
X2.455Y-4.505
X2.455Y-4.655
X2.47Y-3.7
X2.475Y-3.965
X2.475Y-4.165
X2.475Y-4.3
X2.485Y-3.775
X2.5Y-3.875
X2.5Y-3.925
X2.5Y-4.575
X2.515Y-3.65
X2.54Y-4.5
X2.55Y-3.8
X2.55Y-3.9
X2.55Y-3.95
X2.55Y-4.6
X2.755Y-3.85
X2.755Y-4.645
X2.785Y-4.555
X2.8Y-3.75
X2.8Y-3.85
X2.8Y-4.65
X2.81Y-4.475
X2.845Y-3.85
X2.875Y-3.7
X2.925Y-5.15
X3.045Y-4.645
X3.05Y-3.8
X3.05Y-4.6
X3.05Y-5.17
X3.075Y-3.7
X3.075Y-4.505
X3.1Y-4.1
X3.1Y-5.02
X3.105Y-3.8
X3.105Y-3.85
X3.105Y-4.6
X3.105Y-4.646
X3.135Y-4.93
X3.15Y-5.17
X3.19Y-5.025
X3.225Y-5.09
X3.25Y-5.17
X3.305Y-4.505
X3.315Y-3.85
X3.315Y-5.1
X3.32Y-4.25
X3.32Y-4.3
X3.32Y-4.35
X3.32Y-4.4
X3.32Y-4.45
X3.32Y-4.65
X3.35Y-5.17
X3.36Y-4.945
X3.375Y-3.75
X3.38Y-4.835
X3.405Y-5.11
X3.45Y-5.17
X3.455Y-5.02
X3.55Y-5.17
X3.615Y-3.7
X3.615Y-4.675
X3.625Y-4.59
X3.63Y-4.32
X3.635Y-4.97
X3.65Y-5.17
X3.685Y-4.52
X3.69Y-3.445
X3.69Y-4.625
X3.695Y-4.83
X3.71Y-4.1
X3.71Y-5.015
X3.715Y-3.875
X3.725Y-4.23
X3.73Y-3.975
X3.75Y-5.17
X3.755Y-3.525
X3.775Y-3.925
X3.775Y-4.0
X3.775Y-4.45
X3.78Y-4.73
X3.81Y-4.8
X3.85Y-5.17
X3.875Y-4.85
X3.875Y-5.11
X3.9Y-4.0
X3.9Y-4.05
X3.9Y-4.1
X3.9Y-4.15
X3.9Y-4.2
X3.9Y-4.25
X3.9Y-4.3
X3.9Y-4.35
X3.9Y-4.4
X3.9Y-4.45
X3.9Y-4.51
X3.9Y-4.55
X3.9Y-4.6
X3.915Y-3.65
X3.915Y-3.7
X3.915Y-3.75
X3.915Y-3.8
X3.915Y-3.9
X3.925Y-4.75
X3.95Y-5.17
X3.955Y-5.115
X3.96Y-5.05
X3.965Y-3.85
X3.975Y-4.75
X4.01Y-3.975
X4.025Y-4.09
X4.025Y-4.56
X4.025Y-4.775
X4.05Y-3.925
X4.05Y-4.165
X4.05Y-4.6
X4.05Y-4.975
X4.05Y-5.125
X4.05Y-5.17
X4.1Y-3.7
X4.11Y-4.075
X4.115Y-4.23
X4.125Y-4.175
X4.14Y-4.9
X4.15Y-3.65
X4.15Y-3.85
X4.15Y-4.975
X4.15Y-5.125
X4.15Y-5.17
X4.175Y-4.225
X4.175Y-4.29
X4.195Y-4.815
X4.215Y-3.7
X4.215Y-3.98
X4.22Y-4.33
X4.225Y-4.275
X4.23Y-4.91
X4.25Y-3.65
X4.25Y-3.75
X4.25Y-3.925
X4.25Y-4.975
X4.25Y-5.125
X4.25Y-5.17
X4.26Y-4.025
X4.265Y-4.15
X4.265Y-4.2
X4.265Y-4.25
X4.275Y-4.325
X4.285Y-4.4
X4.3Y-3.425
X4.3Y-3.6
X4.3Y-4.6
X4.315Y-4.55
X4.315Y-4.925
X4.32Y-4.815
X4.325Y-4.31
X4.35Y-3.7
X4.35Y-3.85
X4.35Y-4.35
X4.35Y-4.6
X4.35Y-4.975
X4.35Y-5.125
X4.35Y-5.17
X4.375Y-4.31
X4.4Y-4.35
X4.4Y-4.6
X4.41Y-4.815
X4.41Y-5.06
X4.415Y-4.935
X4.425Y-4.31
X4.44Y-3.975
X4.45Y-3.75
X4.45Y-4.35
X4.45Y-5.17
X4.46Y-5.11
X4.465Y-3.65
X4.475Y-3.925
X4.475Y-4.31
X4.485Y-3.7
X4.485Y-4.4
X4.485Y-4.99
X4.5Y-3.475
X4.5Y-4.35
X4.5Y-4.6
X4.5Y-4.725
X4.525Y-4.31
X4.535Y-4.5
X4.545Y-4.92
X4.55Y-3.475
X4.55Y-3.85
X4.55Y-5.17
X4.575Y-3.61
X4.585Y-4.86
X4.6Y-3.475
X4.6Y-3.7
X4.6Y-4.235
X4.615Y-4.73
X4.65Y-4.6
X4.65Y-4.94
X4.65Y-5.17
X4.66Y-4.5
X4.7Y-4.135
X4.7Y-4.35
X4.725Y-3.69
X4.7475Y-4.6
X4.75Y-5.17
X4.775Y-3.69
X4.775Y-4.88
X4.8Y-4.25
X4.8Y-4.45
X4.81Y-4.025
X4.825Y-3.69
X4.835Y-4.8
X4.85Y-5.17
X4.855Y-5.015
X4.855Y-5.12
X4.86Y-3.925
X4.86Y-3.975
X4.875Y-3.69
X4.875Y-5.07
X4.9Y-3.9
X4.9Y-4.15
X4.9Y-4.35
X4.9Y-4.55
X4.905Y-3.725
X4.905Y-3.775
X4.905Y-3.825
X4.925Y-4.955
X4.95Y-5.17
X5.005Y-4.76
X5.025Y-4.05
X5.025Y-4.5
X5.05Y-5.17
X5.07Y-5.045
X5.09Y-4.025
X5.09Y-4.135
X5.11Y-5.075
X5.14Y-3.975
X5.14Y-4.76
X5.14Y-4.82
X5.15Y-5.17
X5.155Y-4.615
X5.155Y-4.705
X5.155Y-5.1
X5.2Y-4.44
X5.2Y-5.16
X5.225Y-4.28
X5.23Y-4.075
X5.23Y-4.165
X5.25Y-4.41
X5.25Y-4.475
X5.25Y-4.525
X5.25Y-4.635
X5.25Y-4.74
X5.25Y-4.865
X5.25Y-5.17
X5.275Y-4.91
X5.3Y-4.955
X5.3Y-5.16
X5.305Y-4.1
X5.305Y-4.2
X5.305Y-4.3
X5.35Y-5.17
X5.405Y-4.55
X5.45Y-5.17
X5.475Y-3.65
X5.525Y-4.2
T2
X1.535Y-3.765
X1.535Y-3.915
X1.535Y-4.115
X1.535Y-4.315
X1.535Y-4.515
X1.535Y-4.715
X1.535Y-4.915
X1.535Y-5.115
X1.58Y-5.16
X1.635Y-4.615
X1.635Y-4.815
X1.635Y-5.015
X1.68Y-3.62
X1.685Y-3.765
X1.735Y-4.715
X1.78Y-4.915
X1.78Y-5.16
X1.83Y-3.47
X1.83Y-3.62
X1.85Y-4.815
X1.88Y-5.06
X1.94Y-3.9
X1.95Y-4.6
X1.95Y-4.725
X1.975Y-3.325
X1.975Y-3.47
X1.98Y-4.915
X1.98Y-5.16
X1.985Y-3.85
X1.985Y-3.95
X2.05Y-3.85
X2.05Y-3.95
X2.05Y-4.075
X2.06Y-3.655
X2.095Y-3.9
X2.11Y-3.585
X2.11Y-3.725
X2.115Y-3.185
X2.12Y-3.325
X2.145Y-3.485
X2.18Y-4.915
X2.18Y-5.16
X2.23Y-3.585
X2.23Y-3.725
X2.245Y-3.185
X2.245Y-3.385
X2.28Y-3.655
X2.345Y-3.285
X2.345Y-3.485
X2.36Y-3.605
X2.38Y-4.915
X2.38Y-5.16
X2.445Y-3.185
X2.445Y-3.385
X2.48Y-5.06
X2.52Y-4.89
X2.545Y-3.285
X2.55Y-3.4
X2.55Y-4.0
X2.55Y-4.1
X2.55Y-4.2
X2.55Y-4.8
X2.58Y-5.16
X2.625Y-3.365
X2.625Y-4.035
X2.625Y-4.165
X2.625Y-4.835
X2.645Y-3.185
X2.68Y-5.06
X2.705Y-4.895
X2.715Y-4.1
X2.735Y-5.05
X2.745Y-3.285
X2.78Y-5.0
X2.78Y-5.1
X2.78Y-5.16
X2.8Y-4.1
X2.845Y-3.185
X2.845Y-5.0
X2.845Y-5.1
X2.89Y-3.3
X2.89Y-4.1
X2.89Y-5.05
X2.935Y-3.25
X2.935Y-3.35
X2.935Y-4.05
X2.935Y-4.15
X2.935Y-5.0
X2.935Y-5.1
X2.95Y-4.9
X3.0Y-3.25
X3.0Y-3.365
X3.0Y-4.035
X3.0Y-4.165
X3.0Y-4.835
X3.0Y-5.1
X3.045Y-3.185
X3.045Y-3.3
X3.045Y-4.1
X3.045Y-5.05
X3.05Y-3.4
X3.05Y-4.0
X3.05Y-4.2
X3.05Y-4.8
X3.05Y-4.9
X3.1Y-3.4
X3.1Y-4.0
X3.1Y-4.2
X3.1Y-4.8
X3.145Y-3.285
X3.175Y-3.365
X3.175Y-4.035
X3.175Y-4.165
X3.175Y-4.835
X3.245Y-3.185
X3.265Y-4.915
X3.29Y-4.1
X3.345Y-3.285
X3.44Y-3.3
X3.44Y-4.1
X3.44Y-4.9
X3.445Y-3.185
X3.485Y-3.25
X3.485Y-3.35
X3.485Y-4.05
X3.485Y-4.15
X3.485Y-4.85
X3.485Y-4.95
X3.55Y-3.25
X3.55Y-3.365
X3.55Y-4.035
X3.55Y-4.165
X3.55Y-4.835
X3.55Y-4.95
X3.595Y-3.3
X3.595Y-4.1
X3.595Y-4.9
X3.6Y-3.4
X3.6Y-4.0
X3.6Y-4.8
X3.645Y-3.185
X3.645Y-3.365
X3.735Y-3.275
X3.775Y-3.85
X3.775Y-4.2
X3.775Y-4.5
X3.79Y-3.3
X3.835Y-3.25
X3.835Y-3.35
X3.845Y-3.185
X3.865Y-3.535
X3.9Y-3.25
X3.9Y-3.35
X3.9Y-3.475
X3.9Y-3.85
X3.945Y-3.3
X4.045Y-3.185
X4.045Y-3.385
X4.05Y-4.725
X4.145Y-3.285
X4.2Y-3.475
X4.2Y-3.6
X4.245Y-3.185
X4.245Y-3.385
X4.25Y-4.6
X4.25Y-4.725
X4.355Y-3.3
X4.4Y-3.25
X4.4Y-3.35
X4.4Y-3.475
X4.4Y-3.6
X4.445Y-3.185
X4.45Y-3.475
X4.45Y-3.6
X4.465Y-3.25
X4.465Y-3.35
X4.49Y-5.05
X4.51Y-3.3
X4.535Y-5.1
X4.6Y-5.1
X4.605Y-3.3
X4.645Y-3.185
X4.65Y-3.25
X4.65Y-3.35
X4.65Y-3.475
X4.65Y-3.6
X4.7Y-4.6
X4.7Y-4.725
X4.7Y-5.1
X4.715Y-3.25
X4.715Y-3.35
X4.76Y-3.3
X4.765Y-5.1
X4.81Y-5.05
X4.845Y-3.185
X4.845Y-3.385
X4.895Y-4.9
X4.9Y-4.25
X4.94Y-4.85
X4.945Y-3.285
X4.965Y-3.565
X5.005Y-4.95
X5.01Y-4.85
X5.025Y-3.6
X5.025Y-3.9
X5.025Y-4.25
X5.025Y-4.55
X5.045Y-3.185
X5.045Y-3.385
X5.055Y-4.9
X5.09Y-3.515
X5.09Y-3.715
X5.145Y-3.285
X5.15Y-3.835
X5.15Y-3.9
X5.19Y-3.615
X5.2Y-3.3
X5.2Y-3.79
X5.2Y-3.945
X5.22Y-3.4
X5.245Y-3.185
X5.25Y-3.23
X5.25Y-3.37
X5.25Y-3.835
X5.25Y-3.9
X5.29Y-3.515
X5.29Y-3.715
X5.29Y-3.915
X5.29Y-5.05
X5.335Y-5.0
X5.335Y-5.1
X5.37Y-3.23
X5.37Y-3.37
X5.39Y-3.615
X5.39Y-3.815
X5.39Y-4.015
X5.39Y-4.615
X5.39Y-4.815
X5.395Y-3.415
X5.4Y-5.0
X5.415Y-4.925
X5.42Y-3.3
X5.445Y-3.185
X5.445Y-5.05
X5.465Y-4.855
X5.465Y-4.995
X5.49Y-3.315
X5.49Y-3.715
X5.49Y-3.915
X5.49Y-4.715
X5.585Y-4.855
X5.585Y-4.995
X5.59Y-3.415
X5.59Y-3.815
X5.59Y-4.015
X5.59Y-4.615
X5.59Y-4.815
X5.635Y-4.925
X5.645Y-3.185
X5.645Y-5.16
X5.69Y-3.23
X5.69Y-3.315
X5.69Y-3.515
X5.69Y-3.715
X5.69Y-4.915
X5.69Y-5.115
X5.695Y-3.915
X5.695Y-4.115
X5.695Y-4.315
X5.695Y-4.515
X5.695Y-4.715
T3
X5.4Y-5.11
T4
X5.53Y-3.245
X1.695Y-5.1
X2.235Y-3.245
X5.53Y-5.1
X1.595Y-3.885
T0
M30
