M48
; DRILL file {KiCad (5.1.5-0-10_14)} date Wednesday, February 17, 2021 at 07:07:15 PM
; FORMAT={-:-/ absolute / inch / decimal}
; #@! TF.CreationDate,2021-02-17T19:07:15-05:00
; #@! TF.GenerationSoftware,Kicad,Pcbnew,(5.1.5-0-10_14)
FMAT,2
INCH
T1C0.0079
T2C0.0118
T3C0.0150
T4C0.0157
T5C0.0300
T6C0.0315
T7C0.0400
T8C0.0433
T9C0.0390
T10C0.0454
T11C0.0935
%
G90
G05
T1
X1.825Y-3.68
X1.825Y-3.915
X1.825Y-4.115
X1.825Y-4.315
X1.825Y-4.515
X1.825Y-4.715
X1.825Y-4.915
X1.825Y-5.1
X1.895Y-5.17
X1.925Y-3.575
X1.925Y-4.015
X1.925Y-4.215
X1.925Y-4.415
X1.925Y-4.615
X1.925Y-4.815
X2.025Y-3.475
X2.025Y-3.715
X2.025Y-3.915
X2.025Y-4.115
X2.025Y-4.315
X2.025Y-4.515
X2.025Y-4.715
X2.025Y-4.915
X2.025Y-5.17
X2.12Y-5.04
X2.125Y-3.375
X2.125Y-3.615
X2.125Y-3.815
X2.125Y-4.015
X2.125Y-4.215
X2.125Y-4.415
X2.125Y-4.615
X2.125Y-4.815
X2.2Y-3.485
X2.22Y-4.515
X2.22Y-4.715
X2.22Y-4.915
X2.2205Y-3.915
X2.2205Y-4.115
X2.2205Y-4.315
X2.225Y-3.275
X2.225Y-3.715
X2.225Y-5.17
X2.2598Y-4.3327
X2.2598Y-4.878
X2.28Y-3.4
X2.2854Y-4.5354
X2.29Y-3.585
X2.313Y-4.876
X2.32Y-5.04
X2.33Y-3.175
X2.345Y-3.5
X2.345Y-3.675
X2.36Y-3.32
X2.3701Y-4.2067
X2.415Y-4.6375
X2.4225Y-4.91
X2.425Y-5.17
X2.445Y-3.4
X2.445Y-3.575
X2.465Y-4.7525
X2.4775Y-4.6075
X2.4843Y-4.5728
X2.495Y-4.6325
X2.5075Y-4.53
X2.52Y-5.04
X2.525Y-4.79
X2.525Y-4.82
X2.545Y-3.3
X2.545Y-3.5
X2.545Y-3.675
X2.5591Y-4.498
X2.59Y-4.185
X2.59Y-4.24
X2.6025Y-4.91
X2.625Y-5.17
X2.6299Y-3.9921
X2.6299Y-4.3327
X2.645Y-3.175
X2.645Y-3.175
X2.645Y-3.41
X2.645Y-3.575
X2.6791Y-3.7972
X2.6909Y-4.3937
X2.7028Y-4.2953
X2.7028Y-4.3504
X2.72Y-5.04
X2.725Y-4.615
X2.725Y-4.815
X2.745Y-3.3
X2.745Y-3.5
X2.745Y-3.675
X2.7461Y-3.7421
X2.7461Y-3.8524
X2.7461Y-4.3228
X2.7461Y-4.4469
X2.825Y-4.515
X2.825Y-4.715
X2.825Y-4.915
X2.825Y-5.17
X2.8327Y-3.5138
X2.8366Y-4.3563
X2.8386Y-4.4134
X2.845Y-3.175
X2.845Y-3.175
X2.845Y-3.41
X2.8661Y-3.6063
X2.925Y-4.615
X2.925Y-4.815
X2.945Y-3.3
X2.945Y-3.49
X2.9803Y-4.002
X2.9803Y-4.687
X3.0059Y-4.1102
X3.01Y-3.8225
X3.025Y-4.515
X3.04Y-3.7725
X3.04Y-3.87
X3.04Y-4.06
X3.045Y-3.175
X3.045Y-3.175
X3.045Y-3.41
X3.05Y-5.17
X3.0502Y-4.687
X3.0502Y-4.7461
X3.0512Y-4.9193
X3.0748Y-4.7303
X3.0768Y-4.2283
X3.0787Y-4.1772
X3.0825Y-3.77
X3.09Y-4.06
X3.1004Y-4.7303
X3.1004Y-4.9646
X3.126Y-4.9941
X3.1378Y-4.2756
X3.14Y-4.06
X3.145Y-3.3
X3.145Y-3.49
X3.1475Y-3.77
X3.15Y-5.17
X3.1516Y-4.2382
X3.1516Y-4.9646
X3.1525Y-5.05
X3.1772Y-4.9941
X3.1791Y-5.1142
X3.19Y-3.77
X3.19Y-4.1575
X3.2028Y-4.9646
X3.22Y-5.0925
X3.2264Y-4.0472
X3.2264Y-4.1063
X3.2283Y-4.9941
X3.2362Y-4.2992
X3.245Y-3.175
X3.245Y-3.4
X3.248Y-3.8504
X3.25Y-5.17
X3.2539Y-4.9646
X3.2559Y-4.2638
X3.2598Y-4.0157
X3.2598Y-4.1378
X3.2657Y-3.9154
X3.2736Y-3.6929
X3.2756Y-4.2992
X3.2795Y-4.9941
X3.2874Y-3.8346
X3.2874Y-3.8819
X3.2874Y-3.9488
X3.2874Y-3.9961
X3.2933Y-4.0472
X3.3051Y-4.874
X3.3051Y-4.9646
X3.313Y-4.2677
X3.3169Y-4.0335
X3.3209Y-4.2283
X3.3268Y-4.4783
X3.3307Y-4.9193
X3.3425Y-4.687
X3.3445Y-4.7461
X3.345Y-3.305
X3.345Y-3.49
X3.35Y-5.17
X3.3524Y-4.1201
X3.3543Y-3.8248
X3.3543Y-5.015
X3.3563Y-3.9114
X3.3563Y-3.9429
X3.3563Y-3.9921
X3.3563Y-4.1693
X3.3563Y-4.2087
X3.3642Y-4.2736
X3.378Y-4.7776
X3.4016Y-3.7185
X3.4016Y-4.3228
X3.4114Y-4.6555
X3.4114Y-4.7461
X3.4124Y-4.687
X3.4193Y-5.1161
X3.4252Y-4.9646
X3.437Y-3.6594
X3.437Y-4.7303
X3.4409Y-4.3996
X3.4449Y-3.9114
X3.4449Y-3.9429
X3.4449Y-3.9921
X3.445Y-3.175
X3.445Y-3.41
X3.4469Y-4.0709
X3.4469Y-4.1102
X3.45Y-5.17
X3.4567Y-4.189
X3.4567Y-4.5059
X3.4606Y-4.1496
X3.4606Y-4.6417
X3.4665Y-4.248
X3.4665Y-5.1043
X3.4803Y-5.0413
X3.4823Y-3.8346
X3.4823Y-3.874
X3.4823Y-4.0118
X3.4823Y-4.0906
X3.4843Y-3.9232
X3.4862Y-4.3386
X3.4882Y-4.2126
X3.4961Y-4.1299
X3.5059Y-4.248
X3.5118Y-4.374
X3.5157Y-3.6437
X3.5197Y-5.1122
X3.5217Y-4.0984
X3.5433Y-3.7343
X3.545Y-3.3
X3.5453Y-4.2087
X3.55Y-5.17
X3.5551Y-5.0925
X3.5591Y-4.3386
X3.561Y-4.248
X3.563Y-3.7697
X3.5787Y-3.6457
X3.5787Y-4.9724
X3.5827Y-3.7343
X3.5886Y-4.248
X3.5906Y-4.3386
X3.6043Y-4.2087
X3.6063Y-3.6457
X3.6102Y-3.7343
X3.6201Y-5.1122
X3.6398Y-4.4449
X3.6437Y-5.0374
X3.6437Y-5.0807
X3.645Y-3.175
X3.645Y-3.41
X3.65Y-5.17
X3.6673Y-4.874
X3.6673Y-4.9646
X3.6929Y-4.9193
X3.7047Y-4.687
X3.7205Y-5.1142
X3.7402Y-5.0354
X3.745Y-3.3
X3.75Y-5.17
X3.7746Y-4.687
X3.7746Y-4.7461
X3.7776Y-3.75
X3.7854Y-4.4035
X3.7894Y-4.374
X3.7913Y-3.6457
X3.7992Y-4.6437
X3.7992Y-4.7303
X3.7992Y-4.9646
X3.8071Y-3.7776
X3.8169Y-3.7402
X3.8248Y-4.7913
X3.8268Y-3.815
X3.8268Y-4.6417
X3.8346Y-4.3386
X3.8366Y-4.248
X3.8366Y-4.9961
X3.8445Y-4.7559
X3.845Y-3.175
X3.845Y-3.4
X3.85Y-5.17
X3.8504Y-4.2106
X3.8543Y-3.6457
X3.8563Y-3.7362
X3.8622Y-3.7953
X3.8642Y-4.248
X3.8661Y-4.3386
X3.8799Y-5.0413
X3.8839Y-3.7362
X3.8858Y-3.6457
X3.9035Y-3.7913
X3.9193Y-5.0531
X3.9213Y-4.0335
X3.9213Y-4.0945
X3.9232Y-3.7362
X3.9232Y-3.9331
X3.9232Y-3.9724
X3.9272Y-4.2264
X3.9272Y-4.5217
X3.939Y-3.6457
X3.939Y-4.4449
X3.945Y-3.3
X3.95Y-5.17
X3.9567Y-4.1142
X3.9587Y-3.7756
X3.9587Y-3.815
X3.9587Y-3.8543
X3.9587Y-3.8937
X3.9587Y-3.9528
X3.9587Y-3.9921
X3.9587Y-4.0472
X3.9587Y-4.0748
X3.9764Y-4.3917
X3.9803Y-3.5118
X3.9823Y-3.6614
X4.0197Y-5.1063
X4.0256Y-4.3071
X4.0295Y-4.874
X4.0295Y-4.9646
X4.0354Y-4.6299
X4.045Y-3.175
X4.0492Y-3.7559
X4.0492Y-3.7953
X4.0492Y-3.8346
X4.0492Y-3.874
X4.0492Y-3.9134
X4.0492Y-3.9528
X4.0492Y-3.9921
X4.0492Y-4.0453
X4.0492Y-4.0768
X4.0492Y-4.4626
X4.05Y-5.17
X4.0502Y-4.1398
X4.0551Y-4.9193
X4.061Y-5.0827
X4.0669Y-4.3839
X4.0689Y-4.687
X4.0846Y-4.1673
X4.0945Y-4.2549
X4.1063Y-3.5354
X4.122Y-3.9449
X4.124Y-4.0394
X4.1358Y-3.8957
X4.1358Y-4.7461
X4.1368Y-4.687
X4.1417Y-5.0669
X4.1437Y-4.3346
X4.15Y-5.17
X4.1594Y-3.8189
X4.1614Y-4.6437
X4.1614Y-4.7303
X4.1614Y-4.874
X4.1654Y-4.4272
X4.1732Y-3.9488
X4.187Y-4.6437
X4.187Y-4.7303
X4.187Y-4.8445
X4.1929Y-4.1555
X4.2067Y-3.9173
X4.2087Y-4.9921
X4.2106Y-3.8583
X4.2126Y-4.874
X4.2205Y-5.0551
X4.2343Y-3.8228
X4.2343Y-3.9587
X4.2382Y-4.8445
X4.245Y-3.175
X4.25Y-5.17
X4.2539Y-4.1083
X4.2559Y-4.2697
X4.2598Y-3.8484
X4.2638Y-4.874
X4.2736Y-3.6024
X4.2854Y-3.9587
X4.2874Y-4.4646
X4.2874Y-4.9921
X4.2894Y-4.128
X4.2894Y-4.2382
X4.2894Y-4.3012
X4.2894Y-4.4114
X4.2894Y-4.8445
X4.3071Y-3.9252
X4.3091Y-4.7835
X4.3189Y-4.1634
X4.3189Y-4.2028
X4.3189Y-4.3366
X4.3189Y-4.376
X4.3228Y-3.7598
X4.3287Y-4.1201
X4.3287Y-4.25
X4.3346Y-5.0571
X4.3406Y-4.9626
X4.35Y-5.17
X4.3543Y-4.7776
X4.3602Y-3.7972
X4.3661Y-3.9291
X4.3661Y-4.876
X4.3858Y-4.9626
X4.3996Y-3.6417
X4.3996Y-4.0571
X4.3996Y-4.1201
X4.3996Y-4.3091
X4.3996Y-4.4035
X4.3996Y-4.4665
X4.3996Y-4.7776
X4.4173Y-4.9193
X4.4331Y-4.7579
X4.4449Y-4.4902
X4.445Y-3.175
X4.445Y-3.375
X4.45Y-5.17
X4.4547Y-5.0374
X4.4646Y-4.7283
X4.4902Y-3.6476
X4.4902Y-3.7106
X4.4902Y-3.7736
X4.4902Y-3.8366
X4.4902Y-3.8996
X4.4902Y-3.9941
X4.4902Y-4.0571
X4.4902Y-4.1201
X4.4902Y-4.2146
X4.4902Y-4.3091
X4.4902Y-4.4035
X4.4902Y-4.4665
X4.4961Y-4.4961
X4.5Y-4.7185
X4.5157Y-3.6791
X4.5157Y-3.7421
X4.5157Y-3.8051
X4.5157Y-3.8681
X4.5157Y-3.9311
X4.5177Y-4.0886
X4.5177Y-4.1476
X4.5177Y-4.187
X4.5177Y-4.2421
X4.5177Y-4.2815
X4.5177Y-4.3366
X4.5177Y-4.376
X4.5177Y-4.435
X4.5295Y-4.8307
X4.5335Y-4.6909
X4.5433Y-4.7638
X4.545Y-3.275
X4.545Y-3.475
X4.55Y-5.17
X4.5669Y-4.7283
X4.6004Y-4.6437
X4.6004Y-4.6909
X4.6063Y-4.5
X4.6181Y-4.7283
X4.624Y-4.0571
X4.6299Y-4.937
X4.6398Y-4.8307
X4.645Y-3.175
X4.645Y-3.375
X4.65Y-5.17
X4.6535Y-4.7638
X4.6713Y-4.1201
X4.6713Y-4.1673
X4.6713Y-4.2146
X4.6713Y-4.2618
X4.6713Y-4.3091
X4.6713Y-4.3563
X4.6713Y-4.4035
X4.6713Y-4.4665
X4.6732Y-4.685
X4.6772Y-4.7283
X4.7067Y-4.6535
X4.7185Y-4.0571
X4.7283Y-4.7283
X4.7402Y-4.9252
X4.745Y-3.275
X4.745Y-3.475
X4.75Y-4.8307
X4.75Y-5.17
X4.7539Y-4.6437
X4.7539Y-4.6909
X4.7638Y-4.7638
X4.7874Y-4.7283
X4.7925Y-5.05
X4.8Y-5.165
X4.8012Y-3.6791
X4.8031Y-4.5315
X4.8209Y-4.6437
X4.8209Y-4.6909
X4.8248Y-4.0886
X4.8248Y-4.1476
X4.8248Y-4.187
X4.8248Y-4.2421
X4.8248Y-4.2815
X4.8248Y-4.3366
X4.8248Y-4.376
X4.8248Y-4.435
X4.8248Y-5.0728
X4.8268Y-3.7106
X4.8268Y-3.7736
X4.8268Y-3.8366
X4.8268Y-3.8996
X4.8268Y-3.9626
X4.8268Y-4.0256
X4.8386Y-4.7283
X4.8445Y-4.5079
X4.845Y-3.175
X4.845Y-3.375
X4.85Y-5.17
X4.8524Y-3.6476
X4.8524Y-3.7421
X4.8524Y-3.8051
X4.8524Y-3.8681
X4.8524Y-3.9311
X4.8524Y-3.9941
X4.8524Y-4.0571
X4.8524Y-4.1201
X4.8524Y-4.2146
X4.8524Y-4.3091
X4.8524Y-4.4035
X4.8524Y-4.4665
X4.8602Y-4.8307
X4.8661Y-5.0256
X4.874Y-4.7638
X4.8976Y-3.6201
X4.8976Y-4.4902
X4.8976Y-4.7283
X4.9291Y-4.5374
X4.9331Y-4.9843
X4.9429Y-3.6476
X4.9429Y-4.0571
X4.9429Y-4.1201
X4.9429Y-4.2146
X4.9429Y-4.4035
X4.9429Y-4.4508
X4.9449Y-3.7067
X4.945Y-3.275
X4.945Y-3.475
X4.9488Y-4.7283
X4.95Y-5.17
X4.9606Y-4.9232
X4.9705Y-4.3701
X4.9705Y-4.8307
X4.9744Y-4.6437
X4.9744Y-4.6909
X4.9783Y-3.6161
X4.9783Y-4.1496
X4.9783Y-4.1811
X4.9823Y-4.7579
X5.0039Y-3.878
X5.0079Y-4.7283
X5.0079Y-4.9508
X5.0079Y-4.9508
X5.0118Y-4.4626
X5.0295Y-5.0512
X5.0315Y-4.3406
X5.0413Y-4.6437
X5.0413Y-4.6909
X5.045Y-3.175
X5.045Y-3.375
X5.0453Y-4.9409
X5.0453Y-4.9843
X5.05Y-5.17
X5.0591Y-4.7283
X5.0728Y-4.3996
X5.0768Y-3.628
X5.0768Y-4.5354
X5.0807Y-4.8287
X5.1004Y-4.8091
X5.1043Y-4.9469
X5.1201Y-3.6634
X5.1201Y-4.8583
X5.1417Y-5.0512
X5.145Y-3.275
X5.145Y-3.475
X5.15Y-5.17
X5.1575Y-4.9823
X5.1594Y-4.8701
X5.1614Y-4.2224
X5.1654Y-3.7106
X5.1811Y-4.9488
X5.189Y-4.4075
X5.2343Y-4.9508
X5.245Y-3.175
X5.245Y-3.375
X5.245Y-3.575
X5.25Y-5.17
X5.2539Y-5.0512
X5.275Y-4.41
X5.2776Y-4.9626
X5.2835Y-5.0039
X5.3031Y-4.8425
X5.325Y-4.565
X5.345Y-3.275
X5.345Y-3.475
X5.35Y-5.17
X5.3524Y-4.8425
X5.372Y-4.2264
X5.372Y-4.3484
X5.4055Y-4.2579
X5.4055Y-4.3169
X5.439Y-4.9665
X5.445Y-3.175
X5.445Y-3.375
X5.445Y-3.575
X5.45Y-5.17
X5.4744Y-4.2539
X5.545Y-3.475
X5.5551Y-4.8504
X5.5846Y-4.4114
X5.63Y-3.175
X5.63Y-5.17
X5.645Y-3.375
X5.647Y-3.7337
X5.647Y-3.9376
X5.6476Y-4.0335
X5.685Y-4.0768
X5.685Y-4.1555
X5.7Y-3.245
X5.7Y-3.475
X5.7Y-3.675
X5.7Y-3.875
X5.7Y-4.275
X5.7Y-4.475
X5.7Y-4.675
X5.7Y-4.875
X5.7Y-5.1
T2
X3.6378Y-4.374
X4.3622Y-4.0335
X4.4449Y-3.6201
X5.1398Y-4.4075
X5.14Y-4.5225
X5.2874Y-4.7146
X5.2894Y-4.5945
X5.3346Y-4.2579
X5.3346Y-4.315
X5.3346Y-4.372
X5.365Y-4.5425
X5.3652Y-4.4065
X5.5157Y-4.5945
X5.5157Y-4.7126
X5.5463Y-4.6545
T3
X4.9783Y-4.311
X5.0177Y-4.0669
X5.0177Y-4.1063
T4
X2.89Y-5.06
X2.935Y-5.1
X2.9764Y-4.7461
X3.0Y-5.1
X3.0157Y-4.6496
X3.045Y-5.05
X3.378Y-4.6496
X3.4823Y-3.6102
X3.5197Y-3.5709
X3.5453Y-4.4134
X3.5787Y-3.5709
X3.6043Y-4.4134
X3.7008Y-4.7461
X3.7402Y-4.6496
X3.7402Y-4.7835
X3.7953Y-3.5709
X3.8209Y-4.4134
X3.8543Y-3.5709
X3.8799Y-4.4134
X3.8878Y-3.5118
X3.8917Y-3.6102
X3.9193Y-4.374
X3.937Y-3.5531
X4.063Y-4.7461
X4.0846Y-4.0394
X4.1024Y-4.6496
X4.1024Y-4.7835
X4.124Y-4.002
X4.124Y-4.0768
X4.124Y-4.1417
X4.3091Y-4.0689
X4.3642Y-4.1575
X4.3642Y-4.2126
X4.3642Y-4.3484
X4.5Y-5.05
X4.545Y-5.1
X4.61Y-5.1
X4.69Y-5.1
X4.755Y-5.1
X4.9783Y-3.7441
X4.9783Y-4.0197
X4.9783Y-4.5
X5.0177Y-3.6575
X5.0177Y-3.6969
X5.0177Y-4.2244
X5.0177Y-4.2638
X5.1358Y-3.8228
X5.1358Y-3.9213
X5.1614Y-4.1319
X5.1614Y-4.1791
X5.187Y-3.7736
X5.187Y-3.872
X5.187Y-3.9705
X5.2106Y-4.0807
X5.2343Y-3.7736
X5.2343Y-3.872
X5.2343Y-3.9705
X5.2598Y-4.1319
X5.2598Y-4.1791
X5.2854Y-3.7264
X5.2854Y-3.8228
X5.2854Y-3.9213
X5.29Y-5.05
X5.3091Y-4.0807
X5.335Y-5.0
X5.335Y-5.1
X5.3583Y-4.1181
X5.3583Y-4.1929
X5.4Y-5.0
X5.445Y-5.05
X5.6004Y-3.6102
X5.6476Y-4.2047
X5.6496Y-3.6516
T5
X5.3248Y-3.9783
X5.4Y-5.11
X5.4094Y-4.0551
X5.4941Y-3.9783
X5.6594Y-3.8209
T7
X2.425Y-3.86
X2.425Y-3.96
X2.425Y-4.06
X2.425Y-4.16
X2.425Y-4.26
X2.525Y-3.86
X2.525Y-3.96
X2.525Y-4.06
X2.525Y-4.16
X2.525Y-4.26
T8
X5.53Y-5.1
T9
X2.365Y-4.695
X2.665Y-4.655
X2.665Y-4.735
X2.365Y-4.695
X2.665Y-4.655
X2.665Y-4.735
T10
X1.895Y-3.785
X2.245Y-3.335
X5.63Y-5.0
X1.895Y-5.0
X5.53Y-3.245
T11
X2.365Y-4.595
X2.365Y-4.795
X2.59Y-4.595
X2.59Y-4.795
X2.365Y-4.595
X2.365Y-4.795
X2.59Y-4.595
X2.59Y-4.795
T6
G00X4.0472Y-3.4567
M15
G01X4.0472Y-3.3543
M16
G05
G00X4.1969Y-3.2165
M15
G01X4.0945Y-3.2165
M16
G05
G00X4.2835Y-3.4567
M15
G01X4.2835Y-3.3543
M16
G05
T0
M30
