M48
; DRILL file {KiCad (5.1.5-0-10_14)} date Saturday, October 17, 2020 at 05:20:31 PM
; FORMAT={-:-/ absolute / inch / decimal}
; #@! TF.CreationDate,2020-10-17T17:20:31-04:00
; #@! TF.GenerationSoftware,Kicad,Pcbnew,(5.1.5-0-10_14)
FMAT,2
INCH
T1C0.0079
T2C0.0118
T3C0.0150
T4C0.0157
T5C0.0300
T6C0.0315
T7C0.0400
T8C0.0433
T9C0.0390
T10C0.0454
T11C0.0935
%
G90
G05
T1
X1.825Y-3.78
X1.825Y-3.915
X1.825Y-4.115
X1.825Y-4.315
X1.825Y-4.515
X1.825Y-4.715
X1.825Y-4.915
X1.825Y-5.1
X1.895Y-5.17
X1.925Y-4.015
X1.925Y-4.215
X1.925Y-4.415
X1.925Y-4.615
X1.925Y-4.815
X1.98Y-3.62
X1.985Y-3.765
X2.025Y-3.915
X2.025Y-4.115
X2.025Y-4.315
X2.025Y-4.515
X2.025Y-4.715
X2.025Y-4.915
X2.025Y-5.17
X2.12Y-5.04
X2.125Y-3.815
X2.125Y-4.015
X2.125Y-4.215
X2.125Y-4.415
X2.125Y-4.615
X2.125Y-4.815
X2.13Y-3.47
X2.13Y-3.62
X2.22Y-4.315
X2.22Y-4.515
X2.22Y-4.715
X2.22Y-4.915
X2.225Y-3.715
X2.225Y-3.915
X2.225Y-4.115
X2.225Y-5.17
X2.2598Y-4.3327
X2.2598Y-4.878
X2.275Y-3.325
X2.2854Y-4.5354
X2.29Y-3.585
X2.313Y-4.876
X2.32Y-5.04
X2.325Y-3.815
X2.325Y-4.015
X2.345Y-3.475
X2.345Y-3.675
X2.3701Y-4.2067
X2.3701Y-4.3209
X2.415Y-4.6375
X2.425Y-5.17
X2.43Y-3.175
X2.4331Y-4.8996
X2.435Y-4.4449
X2.445Y-3.375
X2.445Y-3.575
X2.445Y-3.775
X2.465Y-4.7525
X2.4843Y-4.5728
X2.52Y-5.04
X2.525Y-4.78
X2.545Y-3.3
X2.545Y-3.475
X2.545Y-3.675
X2.5591Y-4.498
X2.59Y-4.185
X2.59Y-4.24
X2.6122Y-4.8996
X2.625Y-5.17
X2.626Y-3.9882
X2.626Y-4.376
X2.645Y-3.175
X2.645Y-3.175
X2.645Y-3.375
X2.645Y-3.575
X2.645Y-3.775
X2.6654Y-4.5177
X2.6909Y-4.3937
X2.6949Y-4.8169
X2.7028Y-4.0098
X2.7028Y-4.2953
X2.7028Y-4.3504
X2.72Y-5.04
X2.7303Y-4.6732
X2.745Y-3.3
X2.745Y-3.475
X2.7598Y-4.4606
X2.7657Y-4.4173
X2.7677Y-4.6555
X2.7953Y-4.1575
X2.7953Y-4.3327
X2.8051Y-4.6378
X2.8228Y-3.7579
X2.825Y-4.915
X2.825Y-5.17
X2.8346Y-4.3445
X2.8346Y-4.4035
X2.8346Y-4.4783
X2.845Y-3.175
X2.845Y-3.175
X2.8504Y-4.5492
X2.8642Y-4.0433
X2.8661Y-4.6437
X2.874Y-4.4035
X2.876Y-4.3583
X2.8917Y-4.8346
X2.9055Y-4.1969
X2.9055Y-4.5709
X2.9134Y-4.4035
X2.9154Y-3.4921
X2.9173Y-4.6398
X2.9173Y-4.9705
X2.9193Y-4.8071
X2.9311Y-4.3189
X2.9331Y-3.6358
X2.9331Y-3.8957
X2.9409Y-4.5138
X2.945Y-3.3
X2.9488Y-4.7815
X2.9488Y-4.876
X2.9528Y-3.7106
X2.9528Y-4.4035
X2.9685Y-3.6004
X2.9724Y-4.3661
X2.9724Y-4.5472
X2.9783Y-4.6535
X2.9783Y-4.9803
X2.9803Y-4.687
X2.9823Y-4.4803
X2.9921Y-3.5453
X2.9921Y-4.4035
X2.998Y-4.9173
X3.0079Y-4.876
X3.0118Y-3.7106
X3.0118Y-3.75
X3.0217Y-4.376
X3.0315Y-4.4035
X3.0315Y-4.4783
X3.0315Y-4.5472
X3.0354Y-4.9508
X3.045Y-3.175
X3.045Y-3.175
X3.05Y-5.17
X3.0502Y-4.687
X3.0502Y-4.7461
X3.0512Y-3.7106
X3.0591Y-4.2972
X3.061Y-4.372
X3.063Y-4.5138
X3.065Y-4.185
X3.0709Y-3.6358
X3.0748Y-4.7303
X3.0906Y-3.7106
X3.0906Y-4.4035
X3.0984Y-3.8425
X3.0984Y-4.061
X3.1004Y-3.4232
X3.1004Y-4.9646
X3.1142Y-3.6122
X3.126Y-4.7323
X3.126Y-4.9941
X3.1299Y-4.4035
X3.1358Y-4.2579
X3.1358Y-4.561
X3.1378Y-4.3642
X3.1378Y-4.4882
X3.145Y-3.3
X3.1496Y-3.7106
X3.15Y-5.17
X3.1516Y-4.6417
X3.1516Y-4.9646
X3.1525Y-5.05
X3.1594Y-4.0886
X3.1693Y-3.6358
X3.1693Y-4.4035
X3.1772Y-4.7323
X3.1772Y-4.9941
X3.1791Y-5.1142
X3.189Y-3.7106
X3.189Y-4.3583
X3.1988Y-4.3189
X3.2028Y-4.6437
X3.2028Y-4.9646
X3.2087Y-3.6358
X3.2087Y-4.4035
X3.2087Y-4.4783
X3.2126Y-4.0374
X3.22Y-5.0925
X3.2205Y-3.8228
X3.2283Y-3.7106
X3.2283Y-4.7323
X3.2283Y-4.9941
X3.2323Y-3.7638
X3.245Y-3.175
X3.245Y-3.39
X3.248Y-3.6358
X3.248Y-4.4035
X3.25Y-5.17
X3.252Y-3.9094
X3.2539Y-4.6417
X3.2539Y-4.7815
X3.2539Y-4.9646
X3.2618Y-4.5965
X3.2717Y-4.1909
X3.2756Y-4.0453
X3.2776Y-4.7323
X3.2795Y-4.9941
X3.2815Y-3.6693
X3.2874Y-3.8287
X3.2874Y-3.8839
X3.2874Y-4.002
X3.2874Y-4.4232
X3.3012Y-4.6083
X3.3031Y-3.6004
X3.3051Y-4.874
X3.3051Y-4.9646
X3.3209Y-3.7972
X3.3209Y-4.189
X3.3209Y-4.2283
X3.3228Y-4.8346
X3.3307Y-4.9193
X3.3425Y-4.687
X3.3425Y-4.752
X3.345Y-3.3
X3.35Y-5.17
X3.3524Y-4.5059
X3.3524Y-4.5689
X3.3543Y-3.8248
X3.3543Y-5.015
X3.3563Y-3.9114
X3.3563Y-3.9429
X3.3563Y-3.9921
X3.3563Y-4.1693
X3.3563Y-4.2087
X3.3642Y-4.2736
X3.378Y-4.7795
X3.3917Y-3.6004
X3.3937Y-4.8858
X3.3996Y-3.7047
X3.4055Y-4.9291
X3.4114Y-4.6555
X3.4124Y-4.687
X3.4124Y-4.7461
X3.4193Y-5.1161
X3.4252Y-4.9646
X3.437Y-4.7303
X3.445Y-3.175
X3.445Y-3.39
X3.4469Y-3.815
X3.4469Y-3.8543
X3.4469Y-3.9114
X3.4469Y-3.9921
X3.4469Y-4.0315
X3.4469Y-4.0709
X3.4469Y-4.1102
X3.4488Y-3.9409
X3.45Y-5.17
X3.4508Y-4.6083
X3.4606Y-4.1496
X3.4665Y-4.248
X3.4665Y-5.1043
X3.4783Y-3.7441
X3.4803Y-3.7953
X3.4803Y-5.0413
X3.4823Y-3.8346
X3.4823Y-3.874
X3.4823Y-3.9724
X3.4823Y-4.0118
X3.4823Y-4.0512
X3.4823Y-4.0906
X3.4862Y-3.9232
X3.4862Y-4.2126
X3.4862Y-4.3386
X3.4961Y-4.1299
X3.5059Y-4.248
X3.5098Y-4.7657
X3.5118Y-4.374
X3.5157Y-3.6437
X3.5197Y-5.1122
X3.5217Y-4.0984
X3.5256Y-3.7362
X3.5374Y-3.8169
X3.545Y-3.295
X3.5453Y-4.2087
X3.55Y-5.17
X3.5551Y-5.0925
X3.5591Y-4.3386
X3.561Y-4.248
X3.5728Y-4.498
X3.5768Y-3.7894
X3.5787Y-3.6457
X3.5787Y-4.9724
X3.5827Y-3.7362
X3.5846Y-3.8287
X3.5886Y-4.248
X3.5906Y-4.3386
X3.6043Y-4.2087
X3.6063Y-3.6457
X3.6102Y-3.7362
X3.6201Y-5.1122
X3.6378Y-3.8346
X3.6437Y-5.0374
X3.6437Y-5.0807
X3.645Y-3.175
X3.6496Y-4.5531
X3.65Y-5.17
X3.6614Y-4.6161
X3.6673Y-4.874
X3.6673Y-4.9646
X3.6929Y-4.9193
X3.7047Y-4.687
X3.7106Y-4.5531
X3.7205Y-5.1142
X3.7402Y-5.0354
X3.745Y-3.295
X3.745Y-3.47
X3.748Y-4.1083
X3.75Y-5.17
X3.7579Y-3.9173
X3.7677Y-4.2362
X3.7736Y-3.7382
X3.7736Y-4.9193
X3.7746Y-4.687
X3.7746Y-4.7461
X3.7854Y-4.4035
X3.7913Y-3.6457
X3.7933Y-3.7717
X3.7992Y-4.6437
X3.7992Y-4.7303
X3.8169Y-3.7402
X3.8248Y-4.7913
X3.8268Y-4.6417
X3.8346Y-4.3386
X3.8366Y-4.248
X3.8366Y-4.9961
X3.8445Y-4.7559
X3.845Y-3.175
X3.845Y-3.36
X3.85Y-5.17
X3.8524Y-4.2106
X3.8543Y-3.6457
X3.8563Y-3.7362
X3.8622Y-3.7953
X3.8642Y-4.248
X3.8661Y-4.3386
X3.8701Y-4.0846
X3.8799Y-5.0413
X3.8839Y-3.7362
X3.8858Y-3.6457
X3.8858Y-3.9173
X3.9035Y-3.7913
X3.9193Y-5.0531
X3.9213Y-4.0335
X3.9232Y-3.7362
X3.9232Y-3.9331
X3.9232Y-3.9724
X3.9232Y-4.0945
X3.9272Y-4.2264
X3.9272Y-4.5217
X3.9331Y-4.4469
X3.939Y-3.6457
X3.945Y-3.295
X3.95Y-5.17
X3.9567Y-4.1142
X3.9567Y-5.1063
X3.9587Y-3.7756
X3.9587Y-3.815
X3.9587Y-3.8543
X3.9587Y-3.8937
X3.9587Y-3.9528
X3.9587Y-3.9921
X3.9587Y-4.0472
X3.9587Y-4.0748
X3.9764Y-4.3917
X3.9803Y-3.5118
X3.9823Y-3.6614
X4.0197Y-5.1063
X4.0236Y-4.3071
X4.0295Y-4.874
X4.0295Y-4.9646
X4.0354Y-4.6299
X4.045Y-3.175
X4.0492Y-3.7559
X4.0492Y-3.7953
X4.0492Y-3.8346
X4.0492Y-3.874
X4.0492Y-3.9134
X4.0492Y-3.9528
X4.0492Y-3.9921
X4.0492Y-4.0453
X4.0492Y-4.0768
X4.0492Y-4.4626
X4.05Y-5.17
X4.0502Y-4.1398
X4.0551Y-4.9193
X4.061Y-5.0827
X4.0669Y-4.3839
X4.0689Y-4.687
X4.0846Y-4.1673
X4.0945Y-4.2559
X4.1063Y-3.5354
X4.122Y-3.9449
X4.124Y-4.0394
X4.1319Y-3.8661
X4.1358Y-4.7461
X4.1368Y-4.687
X4.1417Y-5.0669
X4.1437Y-4.3346
X4.15Y-5.17
X4.1594Y-3.8189
X4.1614Y-4.6437
X4.1614Y-4.7303
X4.1614Y-4.874
X4.1654Y-4.4272
X4.1654Y-4.7835
X4.1732Y-3.9488
X4.187Y-4.6437
X4.187Y-4.7303
X4.187Y-4.8445
X4.1929Y-4.1555
X4.2067Y-3.9173
X4.2087Y-4.9921
X4.2106Y-3.8583
X4.2126Y-4.874
X4.2205Y-5.0551
X4.2343Y-3.8228
X4.2382Y-4.8445
X4.245Y-3.175
X4.25Y-5.17
X4.2539Y-4.1083
X4.2559Y-4.2697
X4.2598Y-3.8484
X4.2638Y-4.874
X4.2697Y-4.7835
X4.2736Y-3.6063
X4.2854Y-3.9626
X4.2874Y-4.4646
X4.2874Y-4.9921
X4.2894Y-4.128
X4.2894Y-4.2382
X4.2894Y-4.3012
X4.2894Y-4.4114
X4.2894Y-4.8445
X4.3091Y-3.9311
X4.3091Y-4.7835
X4.3189Y-4.1634
X4.3189Y-4.2028
X4.3189Y-4.3366
X4.3189Y-4.376
X4.3228Y-3.7598
X4.3287Y-4.1201
X4.3287Y-4.25
X4.3327Y-5.0551
X4.3406Y-4.9646
X4.35Y-5.17
X4.3602Y-3.7972
X4.3602Y-4.7953
X4.3668Y-4.8747
X4.3799Y-4.7461
X4.3898Y-4.622
X4.3917Y-4.9646
X4.3996Y-3.6417
X4.3996Y-4.0571
X4.3996Y-4.1201
X4.3996Y-4.3091
X4.3996Y-4.4035
X4.3996Y-4.4665
X4.4016Y-4.5354
X4.4173Y-4.9193
X4.4291Y-4.687
X4.4291Y-4.8228
X4.437Y-4.9724
X4.4449Y-4.4902
X4.445Y-3.175
X4.445Y-3.375
X4.45Y-5.17
X4.4547Y-5.0354
X4.4567Y-4.8524
X4.4646Y-4.7795
X4.4744Y-4.9409
X4.4902Y-3.6476
X4.4902Y-3.7106
X4.4902Y-3.7736
X4.4902Y-3.8366
X4.4902Y-3.8996
X4.4902Y-3.9941
X4.4902Y-4.0571
X4.4902Y-4.1201
X4.4902Y-4.2146
X4.4902Y-4.3091
X4.4902Y-4.4035
X4.4902Y-4.4665
X4.4961Y-4.5059
X4.5Y-4.687
X4.5Y-4.7539
X4.5157Y-3.6791
X4.5157Y-3.7421
X4.5157Y-3.8051
X4.5157Y-3.8681
X4.5157Y-3.9311
X4.5177Y-4.0886
X4.5177Y-4.1476
X4.5177Y-4.187
X4.5177Y-4.2421
X4.5177Y-4.2815
X4.5177Y-4.3366
X4.5177Y-4.376
X4.5177Y-4.435
X4.5315Y-4.6417
X4.5315Y-4.7323
X4.5315Y-4.8622
X4.545Y-3.275
X4.545Y-3.475
X4.5453Y-4.5472
X4.55Y-5.17
X4.5827Y-4.7323
X4.5833Y-4.9653
X4.5945Y-4.6102
X4.6063Y-4.5
X4.6083Y-4.8622
X4.624Y-4.0571
X4.626Y-4.7539
X4.626Y-4.9744
X4.6339Y-4.5984
X4.6378Y-4.7972
X4.645Y-3.175
X4.65Y-5.17
X4.6594Y-4.6417
X4.6693Y-4.9744
X4.6713Y-4.1201
X4.6713Y-4.1673
X4.6713Y-4.2146
X4.6713Y-4.2618
X4.6713Y-4.3091
X4.6713Y-4.3563
X4.6713Y-4.4035
X4.6713Y-4.4665
X4.685Y-4.874
X4.6988Y-4.6161
X4.7106Y-4.9193
X4.7185Y-4.0571
X4.7224Y-4.687
X4.7441Y-4.5984
X4.745Y-3.275
X4.745Y-3.475
X4.75Y-5.17
X4.7579Y-4.7795
X4.7776Y-5.1417
X4.7933Y-4.687
X4.7933Y-4.7539
X4.8012Y-3.6791
X4.813Y-4.5984
X4.8248Y-4.0886
X4.8248Y-4.1476
X4.8248Y-4.187
X4.8248Y-4.2421
X4.8248Y-4.2815
X4.8248Y-4.3366
X4.8248Y-4.376
X4.8248Y-4.435
X4.8248Y-4.6417
X4.8248Y-4.7323
X4.8268Y-3.7106
X4.8268Y-3.7736
X4.8268Y-3.8366
X4.8268Y-3.8996
X4.8268Y-3.9626
X4.8268Y-4.0256
X4.8287Y-4.7933
X4.8386Y-4.5
X4.8445Y-5.1043
X4.845Y-3.175
X4.845Y-3.375
X4.85Y-5.17
X4.851Y-4.8747
X4.8524Y-3.6476
X4.8524Y-3.7421
X4.8524Y-3.8051
X4.8524Y-3.8681
X4.8524Y-3.9311
X4.8524Y-3.9941
X4.8524Y-4.0571
X4.8524Y-4.1201
X4.8524Y-4.2146
X4.8524Y-4.3091
X4.8524Y-4.4035
X4.8524Y-4.4665
X4.8524Y-4.6063
X4.8858Y-4.6299
X4.8898Y-4.8602
X4.8976Y-3.6201
X4.8976Y-4.4902
X4.9016Y-4.7303
X4.9278Y-4.8747
X4.9291Y-4.5374
X4.9429Y-3.6476
X4.9429Y-4.0571
X4.9429Y-4.1201
X4.9429Y-4.2146
X4.9429Y-4.4035
X4.9449Y-3.7067
X4.945Y-3.275
X4.945Y-3.475
X4.95Y-5.17
X4.9705Y-4.5984
X4.9783Y-3.6161
X4.9783Y-4.1496
X4.9783Y-4.1811
X4.9783Y-4.874
X4.9783Y-4.9646
X4.9803Y-4.7894
X4.9803Y-4.8346
X5.0039Y-3.878
X5.0039Y-4.9193
X5.0374Y-4.9429
X5.0394Y-4.3091
X5.045Y-3.175
X5.045Y-3.375
X5.0453Y-5.0531
X5.05Y-5.17
X5.0709Y-4.4016
X5.0768Y-3.6693
X5.0768Y-4.1693
X5.0965Y-4.998
X5.1Y-5.135
X5.1004Y-4.75
X5.145Y-3.275
X5.145Y-3.475
X5.15Y-5.17
X5.1614Y-4.2224
X5.1654Y-3.7106
X5.185Y-4.9055
X5.189Y-4.4075
X5.2185Y-4.872
X5.245Y-3.175
X5.245Y-3.375
X5.25Y-5.17
X5.2835Y-4.998
X5.2894Y-4.5236
X5.3031Y-4.8425
X5.345Y-3.275
X5.345Y-3.475
X5.35Y-5.17
X5.3524Y-4.8425
X5.372Y-4.2264
X5.372Y-4.3484
X5.4055Y-4.2579
X5.4055Y-4.3169
X5.439Y-4.9665
X5.445Y-3.175
X5.445Y-3.375
X5.45Y-5.17
X5.4744Y-4.2539
X5.545Y-3.475
X5.5551Y-4.8504
X5.63Y-3.175
X5.63Y-5.17
X5.645Y-3.375
X5.647Y-3.7337
X5.647Y-3.9376
X5.6476Y-4.0335
X5.685Y-4.0768
X5.685Y-4.1555
X5.7Y-3.245
X5.7Y-3.475
X5.7Y-3.675
X5.7Y-3.875
X5.7Y-4.275
X5.7Y-4.475
X5.7Y-4.675
X5.7Y-4.875
X5.7Y-5.1
T2
X3.6378Y-4.374
X3.7874Y-4.374
X3.8012Y-4.2126
X4.3622Y-4.0335
X4.4449Y-3.6201
X5.0984Y-4.8091
X5.1398Y-4.4075
X5.1417Y-4.5256
X5.2874Y-4.7146
X5.2894Y-4.5945
X5.3209Y-4.6545
X5.3346Y-4.2579
X5.3346Y-4.315
X5.3346Y-4.372
X5.3642Y-4.5256
X5.3652Y-4.4065
X5.5157Y-4.5945
X5.5157Y-4.7126
X5.5463Y-4.6545
T3
X4.9783Y-4.311
X5.0177Y-4.0571
X5.0177Y-4.1161
T4
X2.89Y-5.06
X2.935Y-5.1
X2.9764Y-4.7461
X3.0Y-5.1
X3.0157Y-4.6496
X3.045Y-5.05
X3.2815Y-3.9429
X3.3209Y-4.0394
X3.378Y-4.6496
X3.4823Y-3.6102
X3.5197Y-3.5709
X3.5453Y-4.4134
X3.5787Y-3.5709
X3.6043Y-4.4134
X3.7008Y-4.7461
X3.7402Y-4.6496
X3.7402Y-4.7835
X3.7953Y-3.5709
X3.8209Y-4.4134
X3.8543Y-3.5709
X3.8799Y-4.4134
X3.8878Y-3.5118
X3.8917Y-3.6102
X3.9193Y-4.374
X3.937Y-3.5531
X4.063Y-4.7461
X4.0846Y-4.0394
X4.1024Y-4.6496
X4.1024Y-4.7835
X4.124Y-4.002
X4.124Y-4.0768
X4.124Y-4.1417
X4.3091Y-4.0689
X4.3642Y-4.1575
X4.3642Y-4.2126
X4.3642Y-4.3484
X4.4252Y-4.752
X4.4646Y-4.6496
X4.5Y-5.05
X4.545Y-5.1
X4.61Y-5.1
X4.69Y-5.1
X4.7185Y-4.752
X4.755Y-5.1
X4.7579Y-4.6476
X4.8Y-5.05
X4.9783Y-3.7441
X4.9783Y-4.0197
X4.9783Y-4.3661
X4.9783Y-4.5
X5.0177Y-3.6476
X5.0177Y-3.7067
X5.0177Y-4.2146
X5.0177Y-4.2736
X5.0177Y-4.4035
X5.0177Y-4.4626
X5.1358Y-3.8228
X5.1358Y-3.9213
X5.1614Y-4.122
X5.1614Y-4.189
X5.1772Y-3.7736
X5.1772Y-3.872
X5.1772Y-3.9705
X5.2106Y-4.0807
X5.2441Y-3.7736
X5.2441Y-3.872
X5.2441Y-3.9705
X5.2598Y-4.122
X5.2598Y-4.189
X5.2854Y-3.7264
X5.2854Y-3.8228
X5.2854Y-3.9213
X5.29Y-5.05
X5.3091Y-4.0807
X5.335Y-5.0
X5.335Y-5.1
X5.3583Y-4.1181
X5.3583Y-4.1929
X5.4Y-5.0
X5.445Y-5.05
X5.5846Y-4.4173
X5.6004Y-3.6102
X5.6476Y-4.2047
X5.6496Y-3.6516
T5
X5.3248Y-3.9783
X5.4Y-5.11
X5.4094Y-4.0551
X5.4941Y-3.9783
X5.6594Y-3.8209
T7
X2.425Y-3.86
X2.425Y-3.96
X2.425Y-4.06
X2.425Y-4.16
X2.425Y-4.26
X2.525Y-3.86
X2.525Y-3.96
X2.525Y-4.06
X2.525Y-4.16
X2.525Y-4.26
T8
X5.53Y-5.1
T9
X2.365Y-4.695
X2.665Y-4.655
X2.665Y-4.735
T10
X1.895Y-3.885
X2.295Y-3.385
X5.63Y-5.0
X1.895Y-5.0
X5.53Y-3.245
T11
X2.365Y-4.595
X2.365Y-4.795
X2.59Y-4.595
X2.59Y-4.795
T6
G00X4.0472Y-3.4567
M15
G01X4.0472Y-3.3543
M16
G05
G00X4.1969Y-3.2165
M15
G01X4.0945Y-3.2165
M16
G05
G00X4.2835Y-3.4567
M15
G01X4.2835Y-3.3543
M16
G05
T0
M30
