G04 #@! TF.GenerationSoftware,KiCad,Pcbnew,9.0.1*
G04 #@! TF.CreationDate,2025-04-12T23:39:18-04:00*
G04 #@! TF.ProjectId,GR8RAM,47523852-414d-42e6-9b69-6361645f7063,1.0*
G04 #@! TF.SameCoordinates,Original*
G04 #@! TF.FileFunction,Soldermask,Bot*
G04 #@! TF.FilePolarity,Negative*
%FSLAX46Y46*%
G04 Gerber Fmt 4.6, Leading zero omitted, Abs format (unit mm)*
G04 Created by KiCad (PCBNEW 9.0.1) date 2025-04-12 23:39:18*
%MOMM*%
%LPD*%
G01*
G04 APERTURE LIST*
G04 APERTURE END LIST*
G36*
X76665999Y-131543771D02*
G01*
X76677712Y-131547869D01*
X76688592Y-131549176D01*
X76744857Y-131571364D01*
X76794635Y-131588782D01*
X76801071Y-131593532D01*
X76804788Y-131594998D01*
X76867758Y-131642749D01*
X76904289Y-131669711D01*
X76931259Y-131706253D01*
X76979001Y-131769211D01*
X76980466Y-131772926D01*
X76985218Y-131779365D01*
X77002642Y-131829162D01*
X77024822Y-131885406D01*
X77026127Y-131896280D01*
X77030229Y-131908001D01*
X77038200Y-131993000D01*
X77038200Y-132037804D01*
X77075396Y-132075000D01*
X77864603Y-132075000D01*
X77901800Y-132037803D01*
X77901800Y-131996798D01*
X77901800Y-131993000D01*
X77909771Y-131908001D01*
X77913869Y-131896288D01*
X77915176Y-131885407D01*
X77937367Y-131829133D01*
X77954782Y-131779365D01*
X77959531Y-131772929D01*
X77960998Y-131769211D01*
X78008777Y-131706204D01*
X78035711Y-131669711D01*
X78072204Y-131642777D01*
X78135211Y-131594998D01*
X78138929Y-131593531D01*
X78145365Y-131588782D01*
X78195140Y-131571365D01*
X78251406Y-131549177D01*
X78262284Y-131547870D01*
X78274001Y-131543771D01*
X78359000Y-131535800D01*
X79121000Y-131535800D01*
X79205999Y-131543771D01*
X79217712Y-131547869D01*
X79228592Y-131549176D01*
X79284857Y-131571364D01*
X79334635Y-131588782D01*
X79341071Y-131593532D01*
X79344788Y-131594998D01*
X79407758Y-131642749D01*
X79444289Y-131669711D01*
X79471259Y-131706253D01*
X79519001Y-131769211D01*
X79520466Y-131772926D01*
X79525218Y-131779365D01*
X79542642Y-131829162D01*
X79564822Y-131885406D01*
X79566127Y-131896280D01*
X79570229Y-131908001D01*
X79578200Y-131993000D01*
X79578200Y-132037804D01*
X79615396Y-132075000D01*
X80404603Y-132075000D01*
X80441800Y-132037803D01*
X80441800Y-131996798D01*
X80441800Y-131993000D01*
X80449771Y-131908001D01*
X80453869Y-131896288D01*
X80455176Y-131885407D01*
X80477367Y-131829133D01*
X80494782Y-131779365D01*
X80499531Y-131772929D01*
X80500998Y-131769211D01*
X80548777Y-131706204D01*
X80575711Y-131669711D01*
X80612204Y-131642777D01*
X80675211Y-131594998D01*
X80678929Y-131593531D01*
X80685365Y-131588782D01*
X80735140Y-131571365D01*
X80791406Y-131549177D01*
X80802284Y-131547870D01*
X80814001Y-131543771D01*
X80899000Y-131535800D01*
X81661000Y-131535800D01*
X81745999Y-131543771D01*
X81757712Y-131547869D01*
X81768592Y-131549176D01*
X81824857Y-131571364D01*
X81874635Y-131588782D01*
X81881071Y-131593532D01*
X81884788Y-131594998D01*
X81947758Y-131642749D01*
X81984289Y-131669711D01*
X82011259Y-131706253D01*
X82059001Y-131769211D01*
X82060466Y-131772926D01*
X82065218Y-131779365D01*
X82082642Y-131829162D01*
X82104822Y-131885406D01*
X82106127Y-131896280D01*
X82110229Y-131908001D01*
X82118200Y-131993000D01*
X82118200Y-132037804D01*
X82155396Y-132075000D01*
X82944603Y-132075000D01*
X82981800Y-132037803D01*
X82981800Y-131996798D01*
X82981800Y-131993000D01*
X82989771Y-131908001D01*
X82993869Y-131896288D01*
X82995176Y-131885407D01*
X83017367Y-131829133D01*
X83034782Y-131779365D01*
X83039531Y-131772929D01*
X83040998Y-131769211D01*
X83088777Y-131706204D01*
X83115711Y-131669711D01*
X83152204Y-131642777D01*
X83215211Y-131594998D01*
X83218929Y-131593531D01*
X83225365Y-131588782D01*
X83275140Y-131571365D01*
X83331406Y-131549177D01*
X83342284Y-131547870D01*
X83354001Y-131543771D01*
X83439000Y-131535800D01*
X84201000Y-131535800D01*
X84285999Y-131543771D01*
X84297712Y-131547869D01*
X84308592Y-131549176D01*
X84364857Y-131571364D01*
X84414635Y-131588782D01*
X84421071Y-131593532D01*
X84424788Y-131594998D01*
X84487758Y-131642749D01*
X84524289Y-131669711D01*
X84551259Y-131706253D01*
X84599001Y-131769211D01*
X84600466Y-131772926D01*
X84605218Y-131779365D01*
X84622642Y-131829162D01*
X84644822Y-131885406D01*
X84646127Y-131896280D01*
X84650229Y-131908001D01*
X84658200Y-131993000D01*
X84658200Y-132037804D01*
X84695396Y-132075000D01*
X85484603Y-132075000D01*
X85521800Y-132037803D01*
X85521800Y-131996798D01*
X85521800Y-131993000D01*
X85529771Y-131908001D01*
X85533869Y-131896288D01*
X85535176Y-131885407D01*
X85557367Y-131829133D01*
X85574782Y-131779365D01*
X85579531Y-131772929D01*
X85580998Y-131769211D01*
X85628777Y-131706204D01*
X85655711Y-131669711D01*
X85692204Y-131642777D01*
X85755211Y-131594998D01*
X85758929Y-131593531D01*
X85765365Y-131588782D01*
X85815140Y-131571365D01*
X85871406Y-131549177D01*
X85882284Y-131547870D01*
X85894001Y-131543771D01*
X85979000Y-131535800D01*
X86741000Y-131535800D01*
X86825999Y-131543771D01*
X86837712Y-131547869D01*
X86848592Y-131549176D01*
X86904857Y-131571364D01*
X86954635Y-131588782D01*
X86961071Y-131593532D01*
X86964788Y-131594998D01*
X87027758Y-131642749D01*
X87064289Y-131669711D01*
X87091259Y-131706253D01*
X87139001Y-131769211D01*
X87140466Y-131772926D01*
X87145218Y-131779365D01*
X87162642Y-131829162D01*
X87184822Y-131885406D01*
X87186127Y-131896280D01*
X87190229Y-131908001D01*
X87198200Y-131993000D01*
X87198200Y-132037804D01*
X87235396Y-132075000D01*
X88024603Y-132075000D01*
X88061800Y-132037803D01*
X88061800Y-131996798D01*
X88061800Y-131993000D01*
X88069771Y-131908001D01*
X88073869Y-131896288D01*
X88075176Y-131885407D01*
X88097367Y-131829133D01*
X88114782Y-131779365D01*
X88119531Y-131772929D01*
X88120998Y-131769211D01*
X88168777Y-131706204D01*
X88195711Y-131669711D01*
X88232204Y-131642777D01*
X88295211Y-131594998D01*
X88298929Y-131593531D01*
X88305365Y-131588782D01*
X88355140Y-131571365D01*
X88411406Y-131549177D01*
X88422284Y-131547870D01*
X88434001Y-131543771D01*
X88519000Y-131535800D01*
X89281000Y-131535800D01*
X89365999Y-131543771D01*
X89377712Y-131547869D01*
X89388592Y-131549176D01*
X89444857Y-131571364D01*
X89494635Y-131588782D01*
X89501071Y-131593532D01*
X89504788Y-131594998D01*
X89567758Y-131642749D01*
X89604289Y-131669711D01*
X89631259Y-131706253D01*
X89679001Y-131769211D01*
X89680466Y-131772926D01*
X89685218Y-131779365D01*
X89702642Y-131829162D01*
X89724822Y-131885406D01*
X89726127Y-131896280D01*
X89730229Y-131908001D01*
X89738200Y-131993000D01*
X89738200Y-132037804D01*
X89775396Y-132075000D01*
X90564603Y-132075000D01*
X90601800Y-132037803D01*
X90601800Y-131996798D01*
X90601800Y-131993000D01*
X90609771Y-131908001D01*
X90613869Y-131896288D01*
X90615176Y-131885407D01*
X90637367Y-131829133D01*
X90654782Y-131779365D01*
X90659531Y-131772929D01*
X90660998Y-131769211D01*
X90708777Y-131706204D01*
X90735711Y-131669711D01*
X90772204Y-131642777D01*
X90835211Y-131594998D01*
X90838929Y-131593531D01*
X90845365Y-131588782D01*
X90895140Y-131571365D01*
X90951406Y-131549177D01*
X90962284Y-131547870D01*
X90974001Y-131543771D01*
X91059000Y-131535800D01*
X91821000Y-131535800D01*
X91905999Y-131543771D01*
X91917712Y-131547869D01*
X91928592Y-131549176D01*
X91984857Y-131571364D01*
X92034635Y-131588782D01*
X92041071Y-131593532D01*
X92044788Y-131594998D01*
X92107758Y-131642749D01*
X92144289Y-131669711D01*
X92171259Y-131706253D01*
X92219001Y-131769211D01*
X92220466Y-131772926D01*
X92225218Y-131779365D01*
X92242642Y-131829162D01*
X92264822Y-131885406D01*
X92266127Y-131896280D01*
X92270229Y-131908001D01*
X92278200Y-131993000D01*
X92278200Y-132037804D01*
X92315396Y-132075000D01*
X93104603Y-132075000D01*
X93141800Y-132037803D01*
X93141800Y-131996798D01*
X93141800Y-131993000D01*
X93149771Y-131908001D01*
X93153869Y-131896288D01*
X93155176Y-131885407D01*
X93177367Y-131829133D01*
X93194782Y-131779365D01*
X93199531Y-131772929D01*
X93200998Y-131769211D01*
X93248777Y-131706204D01*
X93275711Y-131669711D01*
X93312204Y-131642777D01*
X93375211Y-131594998D01*
X93378929Y-131593531D01*
X93385365Y-131588782D01*
X93435140Y-131571365D01*
X93491406Y-131549177D01*
X93502284Y-131547870D01*
X93514001Y-131543771D01*
X93599000Y-131535800D01*
X94361000Y-131535800D01*
X94445999Y-131543771D01*
X94457712Y-131547869D01*
X94468592Y-131549176D01*
X94524857Y-131571364D01*
X94574635Y-131588782D01*
X94581071Y-131593532D01*
X94584788Y-131594998D01*
X94647758Y-131642749D01*
X94684289Y-131669711D01*
X94711259Y-131706253D01*
X94759001Y-131769211D01*
X94760466Y-131772926D01*
X94765218Y-131779365D01*
X94782642Y-131829162D01*
X94804822Y-131885406D01*
X94806127Y-131896280D01*
X94810229Y-131908001D01*
X94818200Y-131993000D01*
X94818200Y-132037804D01*
X94855396Y-132075000D01*
X95644603Y-132075000D01*
X95681800Y-132037803D01*
X95681800Y-131996798D01*
X95681800Y-131993000D01*
X95689771Y-131908001D01*
X95693869Y-131896288D01*
X95695176Y-131885407D01*
X95717367Y-131829133D01*
X95734782Y-131779365D01*
X95739531Y-131772929D01*
X95740998Y-131769211D01*
X95788777Y-131706204D01*
X95815711Y-131669711D01*
X95852204Y-131642777D01*
X95915211Y-131594998D01*
X95918929Y-131593531D01*
X95925365Y-131588782D01*
X95975140Y-131571365D01*
X96031406Y-131549177D01*
X96042284Y-131547870D01*
X96054001Y-131543771D01*
X96139000Y-131535800D01*
X96901000Y-131535800D01*
X96985999Y-131543771D01*
X96997712Y-131547869D01*
X97008592Y-131549176D01*
X97064857Y-131571364D01*
X97114635Y-131588782D01*
X97121071Y-131593532D01*
X97124788Y-131594998D01*
X97187758Y-131642749D01*
X97224289Y-131669711D01*
X97251259Y-131706253D01*
X97299001Y-131769211D01*
X97300466Y-131772926D01*
X97305218Y-131779365D01*
X97322642Y-131829162D01*
X97344822Y-131885406D01*
X97346127Y-131896280D01*
X97350229Y-131908001D01*
X97358200Y-131993000D01*
X97358200Y-132037804D01*
X97395396Y-132075000D01*
X98184603Y-132075000D01*
X98221800Y-132037803D01*
X98221800Y-131996798D01*
X98221800Y-131993000D01*
X98229771Y-131908001D01*
X98233869Y-131896288D01*
X98235176Y-131885407D01*
X98257367Y-131829133D01*
X98274782Y-131779365D01*
X98279531Y-131772929D01*
X98280998Y-131769211D01*
X98328777Y-131706204D01*
X98355711Y-131669711D01*
X98392204Y-131642777D01*
X98455211Y-131594998D01*
X98458929Y-131593531D01*
X98465365Y-131588782D01*
X98515140Y-131571365D01*
X98571406Y-131549177D01*
X98582284Y-131547870D01*
X98594001Y-131543771D01*
X98679000Y-131535800D01*
X99441000Y-131535800D01*
X99525999Y-131543771D01*
X99537712Y-131547869D01*
X99548592Y-131549176D01*
X99604857Y-131571364D01*
X99654635Y-131588782D01*
X99661071Y-131593532D01*
X99664788Y-131594998D01*
X99727758Y-131642749D01*
X99764289Y-131669711D01*
X99791259Y-131706253D01*
X99839001Y-131769211D01*
X99840466Y-131772926D01*
X99845218Y-131779365D01*
X99862642Y-131829162D01*
X99884822Y-131885406D01*
X99886127Y-131896280D01*
X99890229Y-131908001D01*
X99898200Y-131993000D01*
X99898200Y-132037804D01*
X99935396Y-132075000D01*
X100724603Y-132075000D01*
X100761800Y-132037803D01*
X100761800Y-131996798D01*
X100761800Y-131993000D01*
X100769771Y-131908001D01*
X100773869Y-131896288D01*
X100775176Y-131885407D01*
X100797367Y-131829133D01*
X100814782Y-131779365D01*
X100819531Y-131772929D01*
X100820998Y-131769211D01*
X100868777Y-131706204D01*
X100895711Y-131669711D01*
X100932204Y-131642777D01*
X100995211Y-131594998D01*
X100998929Y-131593531D01*
X101005365Y-131588782D01*
X101055140Y-131571365D01*
X101111406Y-131549177D01*
X101122284Y-131547870D01*
X101134001Y-131543771D01*
X101219000Y-131535800D01*
X101981000Y-131535800D01*
X102065999Y-131543771D01*
X102077712Y-131547869D01*
X102088592Y-131549176D01*
X102144857Y-131571364D01*
X102194635Y-131588782D01*
X102201071Y-131593532D01*
X102204788Y-131594998D01*
X102267758Y-131642749D01*
X102304289Y-131669711D01*
X102331259Y-131706253D01*
X102379001Y-131769211D01*
X102380466Y-131772926D01*
X102385218Y-131779365D01*
X102402642Y-131829162D01*
X102424822Y-131885406D01*
X102426127Y-131896280D01*
X102430229Y-131908001D01*
X102438200Y-131993000D01*
X102438200Y-132037804D01*
X102475396Y-132075000D01*
X103264603Y-132075000D01*
X103301800Y-132037803D01*
X103301800Y-131996798D01*
X103301800Y-131993000D01*
X103309771Y-131908001D01*
X103313869Y-131896288D01*
X103315176Y-131885407D01*
X103337367Y-131829133D01*
X103354782Y-131779365D01*
X103359531Y-131772929D01*
X103360998Y-131769211D01*
X103408777Y-131706204D01*
X103435711Y-131669711D01*
X103472204Y-131642777D01*
X103535211Y-131594998D01*
X103538929Y-131593531D01*
X103545365Y-131588782D01*
X103595140Y-131571365D01*
X103651406Y-131549177D01*
X103662284Y-131547870D01*
X103674001Y-131543771D01*
X103759000Y-131535800D01*
X104521000Y-131535800D01*
X104605999Y-131543771D01*
X104617712Y-131547869D01*
X104628592Y-131549176D01*
X104684857Y-131571364D01*
X104734635Y-131588782D01*
X104741071Y-131593532D01*
X104744788Y-131594998D01*
X104807758Y-131642749D01*
X104844289Y-131669711D01*
X104871259Y-131706253D01*
X104919001Y-131769211D01*
X104920466Y-131772926D01*
X104925218Y-131779365D01*
X104942642Y-131829162D01*
X104964822Y-131885406D01*
X104966127Y-131896280D01*
X104970229Y-131908001D01*
X104978200Y-131993000D01*
X104978200Y-132037804D01*
X105015396Y-132075000D01*
X105804603Y-132075000D01*
X105841800Y-132037803D01*
X105841800Y-131996798D01*
X105841800Y-131993000D01*
X105849771Y-131908001D01*
X105853869Y-131896288D01*
X105855176Y-131885407D01*
X105877367Y-131829133D01*
X105894782Y-131779365D01*
X105899531Y-131772929D01*
X105900998Y-131769211D01*
X105948777Y-131706204D01*
X105975711Y-131669711D01*
X106012204Y-131642777D01*
X106075211Y-131594998D01*
X106078929Y-131593531D01*
X106085365Y-131588782D01*
X106135140Y-131571365D01*
X106191406Y-131549177D01*
X106202284Y-131547870D01*
X106214001Y-131543771D01*
X106299000Y-131535800D01*
X107061000Y-131535800D01*
X107145999Y-131543771D01*
X107157712Y-131547869D01*
X107168592Y-131549176D01*
X107224857Y-131571364D01*
X107274635Y-131588782D01*
X107281071Y-131593532D01*
X107284788Y-131594998D01*
X107347758Y-131642749D01*
X107384289Y-131669711D01*
X107411259Y-131706253D01*
X107459001Y-131769211D01*
X107460466Y-131772926D01*
X107465218Y-131779365D01*
X107482642Y-131829162D01*
X107504822Y-131885406D01*
X107506127Y-131896280D01*
X107510229Y-131908001D01*
X107518200Y-131993000D01*
X107518200Y-132037804D01*
X107555396Y-132075000D01*
X108344603Y-132075000D01*
X108381800Y-132037803D01*
X108381800Y-131996798D01*
X108381800Y-131993000D01*
X108389771Y-131908001D01*
X108393869Y-131896288D01*
X108395176Y-131885407D01*
X108417367Y-131829133D01*
X108434782Y-131779365D01*
X108439531Y-131772929D01*
X108440998Y-131769211D01*
X108488777Y-131706204D01*
X108515711Y-131669711D01*
X108552204Y-131642777D01*
X108615211Y-131594998D01*
X108618929Y-131593531D01*
X108625365Y-131588782D01*
X108675140Y-131571365D01*
X108731406Y-131549177D01*
X108742284Y-131547870D01*
X108754001Y-131543771D01*
X108839000Y-131535800D01*
X109601000Y-131535800D01*
X109685999Y-131543771D01*
X109697712Y-131547869D01*
X109708592Y-131549176D01*
X109764857Y-131571364D01*
X109814635Y-131588782D01*
X109821071Y-131593532D01*
X109824788Y-131594998D01*
X109887758Y-131642749D01*
X109924289Y-131669711D01*
X109951259Y-131706253D01*
X109999001Y-131769211D01*
X110000466Y-131772926D01*
X110005218Y-131779365D01*
X110022642Y-131829162D01*
X110044822Y-131885406D01*
X110046127Y-131896280D01*
X110050229Y-131908001D01*
X110058200Y-131993000D01*
X110058200Y-132037804D01*
X110095396Y-132075000D01*
X110884603Y-132075000D01*
X110921800Y-132037803D01*
X110921800Y-131996798D01*
X110921800Y-131993000D01*
X110929771Y-131908001D01*
X110933869Y-131896288D01*
X110935176Y-131885407D01*
X110957367Y-131829133D01*
X110974782Y-131779365D01*
X110979531Y-131772929D01*
X110980998Y-131769211D01*
X111028777Y-131706204D01*
X111055711Y-131669711D01*
X111092204Y-131642777D01*
X111155211Y-131594998D01*
X111158929Y-131593531D01*
X111165365Y-131588782D01*
X111215140Y-131571365D01*
X111271406Y-131549177D01*
X111282284Y-131547870D01*
X111294001Y-131543771D01*
X111379000Y-131535800D01*
X112141000Y-131535800D01*
X112225999Y-131543771D01*
X112237712Y-131547869D01*
X112248592Y-131549176D01*
X112304857Y-131571364D01*
X112354635Y-131588782D01*
X112361071Y-131593532D01*
X112364788Y-131594998D01*
X112427758Y-131642749D01*
X112464289Y-131669711D01*
X112491259Y-131706253D01*
X112539001Y-131769211D01*
X112540466Y-131772926D01*
X112545218Y-131779365D01*
X112562642Y-131829162D01*
X112584822Y-131885406D01*
X112586127Y-131896280D01*
X112590229Y-131908001D01*
X112598200Y-131993000D01*
X112598200Y-132037804D01*
X112635396Y-132075000D01*
X113424603Y-132075000D01*
X113461800Y-132037803D01*
X113461800Y-131996798D01*
X113461800Y-131993000D01*
X113469771Y-131908001D01*
X113473869Y-131896288D01*
X113475176Y-131885407D01*
X113497367Y-131829133D01*
X113514782Y-131779365D01*
X113519531Y-131772929D01*
X113520998Y-131769211D01*
X113568777Y-131706204D01*
X113595711Y-131669711D01*
X113632204Y-131642777D01*
X113695211Y-131594998D01*
X113698929Y-131593531D01*
X113705365Y-131588782D01*
X113755140Y-131571365D01*
X113811406Y-131549177D01*
X113822284Y-131547870D01*
X113834001Y-131543771D01*
X113919000Y-131535800D01*
X114681000Y-131535800D01*
X114765999Y-131543771D01*
X114777712Y-131547869D01*
X114788592Y-131549176D01*
X114844857Y-131571364D01*
X114894635Y-131588782D01*
X114901071Y-131593532D01*
X114904788Y-131594998D01*
X114967758Y-131642749D01*
X115004289Y-131669711D01*
X115031259Y-131706253D01*
X115079001Y-131769211D01*
X115080466Y-131772926D01*
X115085218Y-131779365D01*
X115102642Y-131829162D01*
X115124822Y-131885406D01*
X115126127Y-131896280D01*
X115130229Y-131908001D01*
X115138200Y-131993000D01*
X115138200Y-132037804D01*
X115175396Y-132075000D01*
X115964603Y-132075000D01*
X116001800Y-132037803D01*
X116001800Y-131996798D01*
X116001800Y-131993000D01*
X116009771Y-131908001D01*
X116013869Y-131896288D01*
X116015176Y-131885407D01*
X116037367Y-131829133D01*
X116054782Y-131779365D01*
X116059531Y-131772929D01*
X116060998Y-131769211D01*
X116108777Y-131706204D01*
X116135711Y-131669711D01*
X116172204Y-131642777D01*
X116235211Y-131594998D01*
X116238929Y-131593531D01*
X116245365Y-131588782D01*
X116295140Y-131571365D01*
X116351406Y-131549177D01*
X116362284Y-131547870D01*
X116374001Y-131543771D01*
X116459000Y-131535800D01*
X117221000Y-131535800D01*
X117305999Y-131543771D01*
X117317712Y-131547869D01*
X117328592Y-131549176D01*
X117384857Y-131571364D01*
X117434635Y-131588782D01*
X117441071Y-131593532D01*
X117444788Y-131594998D01*
X117507758Y-131642749D01*
X117544289Y-131669711D01*
X117571259Y-131706253D01*
X117619001Y-131769211D01*
X117620466Y-131772926D01*
X117625218Y-131779365D01*
X117642642Y-131829162D01*
X117664822Y-131885406D01*
X117666127Y-131896280D01*
X117670229Y-131908001D01*
X117678200Y-131993000D01*
X117678200Y-132037804D01*
X117715396Y-132075000D01*
X118504603Y-132075000D01*
X118541800Y-132037803D01*
X118541800Y-131996798D01*
X118541800Y-131993000D01*
X118549771Y-131908001D01*
X118553869Y-131896288D01*
X118555176Y-131885407D01*
X118577367Y-131829133D01*
X118594782Y-131779365D01*
X118599531Y-131772929D01*
X118600998Y-131769211D01*
X118648777Y-131706204D01*
X118675711Y-131669711D01*
X118712204Y-131642777D01*
X118775211Y-131594998D01*
X118778929Y-131593531D01*
X118785365Y-131588782D01*
X118835140Y-131571365D01*
X118891406Y-131549177D01*
X118902284Y-131547870D01*
X118914001Y-131543771D01*
X118999000Y-131535800D01*
X119761000Y-131535800D01*
X119845999Y-131543771D01*
X119857712Y-131547869D01*
X119868592Y-131549176D01*
X119924857Y-131571364D01*
X119974635Y-131588782D01*
X119981071Y-131593532D01*
X119984788Y-131594998D01*
X120047758Y-131642749D01*
X120084289Y-131669711D01*
X120111259Y-131706253D01*
X120159001Y-131769211D01*
X120160466Y-131772926D01*
X120165218Y-131779365D01*
X120182642Y-131829162D01*
X120204822Y-131885406D01*
X120206127Y-131896280D01*
X120210229Y-131908001D01*
X120218200Y-131993000D01*
X120218200Y-132037804D01*
X120255396Y-132075000D01*
X121044603Y-132075000D01*
X121081800Y-132037803D01*
X121081800Y-131996798D01*
X121081800Y-131993000D01*
X121089771Y-131908001D01*
X121093869Y-131896288D01*
X121095176Y-131885407D01*
X121117367Y-131829133D01*
X121134782Y-131779365D01*
X121139531Y-131772929D01*
X121140998Y-131769211D01*
X121188777Y-131706204D01*
X121215711Y-131669711D01*
X121252204Y-131642777D01*
X121315211Y-131594998D01*
X121318929Y-131593531D01*
X121325365Y-131588782D01*
X121375140Y-131571365D01*
X121431406Y-131549177D01*
X121442284Y-131547870D01*
X121454001Y-131543771D01*
X121539000Y-131535800D01*
X122301000Y-131535800D01*
X122385999Y-131543771D01*
X122397712Y-131547869D01*
X122408592Y-131549176D01*
X122464857Y-131571364D01*
X122514635Y-131588782D01*
X122521071Y-131593532D01*
X122524788Y-131594998D01*
X122587758Y-131642749D01*
X122624289Y-131669711D01*
X122651259Y-131706253D01*
X122699001Y-131769211D01*
X122700466Y-131772926D01*
X122705218Y-131779365D01*
X122722642Y-131829162D01*
X122744822Y-131885406D01*
X122746127Y-131896280D01*
X122750229Y-131908001D01*
X122758200Y-131993000D01*
X122758200Y-132037804D01*
X122795396Y-132075000D01*
X123584603Y-132075000D01*
X123621800Y-132037803D01*
X123621800Y-131996798D01*
X123621800Y-131993000D01*
X123629771Y-131908001D01*
X123633869Y-131896288D01*
X123635176Y-131885407D01*
X123657367Y-131829133D01*
X123674782Y-131779365D01*
X123679531Y-131772929D01*
X123680998Y-131769211D01*
X123728777Y-131706204D01*
X123755711Y-131669711D01*
X123792204Y-131642777D01*
X123855211Y-131594998D01*
X123858929Y-131593531D01*
X123865365Y-131588782D01*
X123915140Y-131571365D01*
X123971406Y-131549177D01*
X123982284Y-131547870D01*
X123994001Y-131543771D01*
X124079000Y-131535800D01*
X124841000Y-131535800D01*
X124925999Y-131543771D01*
X124937712Y-131547869D01*
X124948592Y-131549176D01*
X125004857Y-131571364D01*
X125054635Y-131588782D01*
X125061071Y-131593532D01*
X125064788Y-131594998D01*
X125127758Y-131642749D01*
X125164289Y-131669711D01*
X125191259Y-131706253D01*
X125239001Y-131769211D01*
X125240466Y-131772926D01*
X125245218Y-131779365D01*
X125262642Y-131829162D01*
X125284822Y-131885406D01*
X125286127Y-131896280D01*
X125290229Y-131908001D01*
X125298200Y-131993000D01*
X125298200Y-132037804D01*
X125335396Y-132075000D01*
X126124603Y-132075000D01*
X126161800Y-132037803D01*
X126161800Y-131996798D01*
X126161800Y-131993000D01*
X126169771Y-131908001D01*
X126173869Y-131896288D01*
X126175176Y-131885407D01*
X126197367Y-131829133D01*
X126214782Y-131779365D01*
X126219531Y-131772929D01*
X126220998Y-131769211D01*
X126268777Y-131706204D01*
X126295711Y-131669711D01*
X126332204Y-131642777D01*
X126395211Y-131594998D01*
X126398929Y-131593531D01*
X126405365Y-131588782D01*
X126455140Y-131571365D01*
X126511406Y-131549177D01*
X126522284Y-131547870D01*
X126534001Y-131543771D01*
X126619000Y-131535800D01*
X127381000Y-131535800D01*
X127465999Y-131543771D01*
X127477712Y-131547869D01*
X127488592Y-131549176D01*
X127544857Y-131571364D01*
X127594635Y-131588782D01*
X127601071Y-131593532D01*
X127604788Y-131594998D01*
X127667758Y-131642749D01*
X127704289Y-131669711D01*
X127731259Y-131706253D01*
X127779001Y-131769211D01*
X127780466Y-131772926D01*
X127785218Y-131779365D01*
X127802642Y-131829162D01*
X127824822Y-131885406D01*
X127826127Y-131896280D01*
X127830229Y-131908001D01*
X127838200Y-131993000D01*
X127838200Y-132037804D01*
X127875396Y-132075000D01*
X128664603Y-132075000D01*
X128701800Y-132037803D01*
X128701800Y-131996798D01*
X128701800Y-131993000D01*
X128709771Y-131908001D01*
X128713869Y-131896288D01*
X128715176Y-131885407D01*
X128737367Y-131829133D01*
X128754782Y-131779365D01*
X128759531Y-131772929D01*
X128760998Y-131769211D01*
X128808777Y-131706204D01*
X128835711Y-131669711D01*
X128872204Y-131642777D01*
X128935211Y-131594998D01*
X128938929Y-131593531D01*
X128945365Y-131588782D01*
X128995140Y-131571365D01*
X129051406Y-131549177D01*
X129062284Y-131547870D01*
X129074001Y-131543771D01*
X129159000Y-131535800D01*
X129921000Y-131535800D01*
X130005999Y-131543771D01*
X130017712Y-131547869D01*
X130028592Y-131549176D01*
X130084857Y-131571364D01*
X130134635Y-131588782D01*
X130141071Y-131593532D01*
X130144788Y-131594998D01*
X130207758Y-131642749D01*
X130244289Y-131669711D01*
X130271259Y-131706253D01*
X130319001Y-131769211D01*
X130320466Y-131772926D01*
X130325218Y-131779365D01*
X130342642Y-131829162D01*
X130364822Y-131885406D01*
X130366127Y-131896280D01*
X130370229Y-131908001D01*
X130378200Y-131993000D01*
X130378200Y-132037804D01*
X130415396Y-132075000D01*
X131204603Y-132075000D01*
X131241800Y-132037803D01*
X131241800Y-131996798D01*
X131241800Y-131993000D01*
X131249771Y-131908001D01*
X131253869Y-131896288D01*
X131255176Y-131885407D01*
X131277367Y-131829133D01*
X131294782Y-131779365D01*
X131299531Y-131772929D01*
X131300998Y-131769211D01*
X131348777Y-131706204D01*
X131375711Y-131669711D01*
X131412204Y-131642777D01*
X131475211Y-131594998D01*
X131478929Y-131593531D01*
X131485365Y-131588782D01*
X131535140Y-131571365D01*
X131591406Y-131549177D01*
X131602284Y-131547870D01*
X131614001Y-131543771D01*
X131699000Y-131535800D01*
X132461000Y-131535800D01*
X132545999Y-131543771D01*
X132557712Y-131547869D01*
X132568592Y-131549176D01*
X132624857Y-131571364D01*
X132674635Y-131588782D01*
X132681071Y-131593532D01*
X132684788Y-131594998D01*
X132747758Y-131642749D01*
X132784289Y-131669711D01*
X132811259Y-131706253D01*
X132859001Y-131769211D01*
X132860466Y-131772926D01*
X132865218Y-131779365D01*
X132882642Y-131829162D01*
X132904822Y-131885406D01*
X132906127Y-131896280D01*
X132910229Y-131908001D01*
X132918200Y-131993000D01*
X132918200Y-132037804D01*
X132955396Y-132075000D01*
X133744603Y-132075000D01*
X133781800Y-132037803D01*
X133781800Y-131996798D01*
X133781800Y-131993000D01*
X133789771Y-131908001D01*
X133793869Y-131896288D01*
X133795176Y-131885407D01*
X133817367Y-131829133D01*
X133834782Y-131779365D01*
X133839531Y-131772929D01*
X133840998Y-131769211D01*
X133888777Y-131706204D01*
X133915711Y-131669711D01*
X133952204Y-131642777D01*
X134015211Y-131594998D01*
X134018929Y-131593531D01*
X134025365Y-131588782D01*
X134075140Y-131571365D01*
X134131406Y-131549177D01*
X134142284Y-131547870D01*
X134154001Y-131543771D01*
X134239000Y-131535800D01*
X135001000Y-131535800D01*
X135085999Y-131543771D01*
X135097712Y-131547869D01*
X135108592Y-131549176D01*
X135164857Y-131571364D01*
X135214635Y-131588782D01*
X135221071Y-131593532D01*
X135224788Y-131594998D01*
X135287758Y-131642749D01*
X135324289Y-131669711D01*
X135351259Y-131706253D01*
X135399001Y-131769211D01*
X135400466Y-131772926D01*
X135405218Y-131779365D01*
X135422642Y-131829162D01*
X135444822Y-131885406D01*
X135446127Y-131896280D01*
X135450229Y-131908001D01*
X135458200Y-131993000D01*
X135458200Y-132037804D01*
X135495396Y-132075000D01*
X136284603Y-132075000D01*
X136321800Y-132037803D01*
X136321800Y-131996798D01*
X136321800Y-131993000D01*
X136329771Y-131908001D01*
X136333869Y-131896288D01*
X136335176Y-131885407D01*
X136357367Y-131829133D01*
X136374782Y-131779365D01*
X136379531Y-131772929D01*
X136380998Y-131769211D01*
X136428777Y-131706204D01*
X136455711Y-131669711D01*
X136492204Y-131642777D01*
X136555211Y-131594998D01*
X136558929Y-131593531D01*
X136565365Y-131588782D01*
X136615140Y-131571365D01*
X136671406Y-131549177D01*
X136682284Y-131547870D01*
X136694001Y-131543771D01*
X136779000Y-131535800D01*
X137541000Y-131535800D01*
X137625999Y-131543771D01*
X137637712Y-131547869D01*
X137648592Y-131549176D01*
X137704857Y-131571364D01*
X137754635Y-131588782D01*
X137761071Y-131593532D01*
X137764788Y-131594998D01*
X137827758Y-131642749D01*
X137864289Y-131669711D01*
X137891259Y-131706253D01*
X137939001Y-131769211D01*
X137940466Y-131772926D01*
X137945218Y-131779365D01*
X137962642Y-131829162D01*
X137984822Y-131885406D01*
X137986127Y-131896280D01*
X137990229Y-131908001D01*
X137998200Y-131993000D01*
X137998200Y-132037804D01*
X138035396Y-132075000D01*
X139687370Y-132075000D01*
X139699442Y-132080000D01*
X139700000Y-132080000D01*
X139700000Y-132080558D01*
X139705000Y-132092629D01*
X139705000Y-139433370D01*
X139700000Y-139445440D01*
X139700000Y-139446000D01*
X139699604Y-139446395D01*
X139694605Y-139458464D01*
X139204464Y-139948605D01*
X139192395Y-139953604D01*
X139192000Y-139954000D01*
X139191440Y-139954000D01*
X139179370Y-139959000D01*
X74180630Y-139959000D01*
X74168559Y-139954000D01*
X74168000Y-139954000D01*
X74167604Y-139953604D01*
X74155535Y-139948605D01*
X73665394Y-139458464D01*
X73660394Y-139446394D01*
X73660000Y-139446000D01*
X73660000Y-139445441D01*
X73655000Y-139433370D01*
X73655000Y-132092629D01*
X73660000Y-132080556D01*
X73660000Y-132080000D01*
X73660557Y-132080000D01*
X73672630Y-132075000D01*
X75324603Y-132075000D01*
X75361800Y-132037803D01*
X75361800Y-131996798D01*
X75361800Y-131993000D01*
X75369771Y-131908001D01*
X75373869Y-131896288D01*
X75375176Y-131885407D01*
X75397367Y-131829133D01*
X75414782Y-131779365D01*
X75419531Y-131772929D01*
X75420998Y-131769211D01*
X75468777Y-131706204D01*
X75495711Y-131669711D01*
X75532204Y-131642777D01*
X75595211Y-131594998D01*
X75598929Y-131593531D01*
X75605365Y-131588782D01*
X75655140Y-131571365D01*
X75711406Y-131549177D01*
X75722284Y-131547870D01*
X75734001Y-131543771D01*
X75819000Y-131535800D01*
X76581000Y-131535800D01*
X76665999Y-131543771D01*
G37*
G36*
X140713234Y-128493535D02*
G01*
X140873844Y-128545721D01*
X141024313Y-128622389D01*
X141160936Y-128721651D01*
X141280349Y-128841064D01*
X141379611Y-128977687D01*
X141456279Y-129128156D01*
X141508465Y-129288766D01*
X141534882Y-129455562D01*
X141534882Y-129624438D01*
X141508465Y-129791234D01*
X141456279Y-129951844D01*
X141379611Y-130102313D01*
X141280349Y-130238936D01*
X141160936Y-130358349D01*
X141024313Y-130457611D01*
X140873844Y-130534279D01*
X140713234Y-130586465D01*
X140546438Y-130612882D01*
X140377562Y-130612882D01*
X140210766Y-130586465D01*
X140050156Y-130534279D01*
X139899687Y-130457611D01*
X139763064Y-130358349D01*
X139643651Y-130238936D01*
X139544389Y-130102313D01*
X139467721Y-129951844D01*
X139415535Y-129791234D01*
X139389118Y-129624438D01*
X139389118Y-129455562D01*
X139415535Y-129288766D01*
X139467721Y-129128156D01*
X139544389Y-128977687D01*
X139643651Y-128841064D01*
X139763064Y-128721651D01*
X139899687Y-128622389D01*
X140050156Y-128545721D01*
X140210766Y-128493535D01*
X140377562Y-128467118D01*
X140546438Y-128467118D01*
X140713234Y-128493535D01*
G37*
G36*
X48343166Y-126307175D02*
G01*
X48474291Y-126361489D01*
X48592301Y-126440340D01*
X48692660Y-126540699D01*
X48771511Y-126658709D01*
X48825825Y-126789834D01*
X48853514Y-126929036D01*
X48853514Y-127070964D01*
X48825825Y-127210166D01*
X48771511Y-127341291D01*
X48692660Y-127459301D01*
X48592301Y-127559660D01*
X48474291Y-127638511D01*
X48343166Y-127692825D01*
X48203964Y-127720514D01*
X48062036Y-127720514D01*
X47922834Y-127692825D01*
X47791709Y-127638511D01*
X47673699Y-127559660D01*
X47573340Y-127459301D01*
X47494489Y-127341291D01*
X47440175Y-127210166D01*
X47412486Y-127070964D01*
X47412486Y-126929036D01*
X47440175Y-126789834D01*
X47494489Y-126658709D01*
X47573340Y-126540699D01*
X47673699Y-126440340D01*
X47791709Y-126361489D01*
X47922834Y-126307175D01*
X48062036Y-126279486D01*
X48203964Y-126279486D01*
X48343166Y-126307175D01*
G37*
G36*
X143212166Y-126307175D02*
G01*
X143343291Y-126361489D01*
X143461301Y-126440340D01*
X143561660Y-126540699D01*
X143640511Y-126658709D01*
X143694825Y-126789834D01*
X143722514Y-126929036D01*
X143722514Y-127070964D01*
X143694825Y-127210166D01*
X143640511Y-127341291D01*
X143561660Y-127459301D01*
X143461301Y-127559660D01*
X143343291Y-127638511D01*
X143212166Y-127692825D01*
X143072964Y-127720514D01*
X142931036Y-127720514D01*
X142791834Y-127692825D01*
X142660709Y-127638511D01*
X142542699Y-127559660D01*
X142442340Y-127459301D01*
X142363489Y-127341291D01*
X142309175Y-127210166D01*
X142281486Y-127070964D01*
X142281486Y-126929036D01*
X142309175Y-126789834D01*
X142363489Y-126658709D01*
X142442340Y-126540699D01*
X142542699Y-126440340D01*
X142660709Y-126361489D01*
X142791834Y-126307175D01*
X142931036Y-126279486D01*
X143072964Y-126279486D01*
X143212166Y-126307175D01*
G37*
G36*
X55373691Y-124147389D02*
G01*
X55383096Y-124147389D01*
X55410190Y-124154649D01*
X55474310Y-124167403D01*
X55504577Y-124179940D01*
X55527204Y-124186003D01*
X55547489Y-124197715D01*
X55577754Y-124210251D01*
X55632120Y-124246576D01*
X55656407Y-124260599D01*
X55663053Y-124267245D01*
X55670859Y-124272461D01*
X55750038Y-124351640D01*
X55755253Y-124359445D01*
X55761901Y-124366093D01*
X55775925Y-124390383D01*
X55812248Y-124444745D01*
X55824782Y-124475006D01*
X55836497Y-124495296D01*
X55842560Y-124517926D01*
X55855096Y-124548189D01*
X55867850Y-124612306D01*
X55875111Y-124639404D01*
X55875111Y-124648808D01*
X55876942Y-124658013D01*
X55876942Y-124769986D01*
X55875111Y-124779190D01*
X55875111Y-124788596D01*
X55867849Y-124815696D01*
X55855096Y-124879810D01*
X55842561Y-124910070D01*
X55836497Y-124932704D01*
X55824781Y-124952996D01*
X55812248Y-124983254D01*
X55775929Y-125037609D01*
X55761901Y-125061907D01*
X55755251Y-125068556D01*
X55750038Y-125076359D01*
X55670859Y-125155538D01*
X55663056Y-125160751D01*
X55656407Y-125167401D01*
X55632109Y-125181429D01*
X55577754Y-125217748D01*
X55547496Y-125230281D01*
X55527204Y-125241997D01*
X55504570Y-125248061D01*
X55474310Y-125260596D01*
X55410196Y-125273349D01*
X55383096Y-125280611D01*
X55373691Y-125280611D01*
X55364486Y-125282442D01*
X55252514Y-125282442D01*
X55243309Y-125280611D01*
X55233904Y-125280611D01*
X55206804Y-125273349D01*
X55142689Y-125260596D01*
X55112426Y-125248060D01*
X55089796Y-125241997D01*
X55069506Y-125230282D01*
X55039245Y-125217748D01*
X54984883Y-125181425D01*
X54960593Y-125167401D01*
X54953945Y-125160753D01*
X54946140Y-125155538D01*
X54866961Y-125076359D01*
X54861745Y-125068553D01*
X54855099Y-125061907D01*
X54841076Y-125037620D01*
X54804751Y-124983254D01*
X54792215Y-124952989D01*
X54780503Y-124932704D01*
X54774440Y-124910077D01*
X54761903Y-124879810D01*
X54749149Y-124815690D01*
X54741889Y-124788596D01*
X54741889Y-124779191D01*
X54740058Y-124769986D01*
X54740058Y-124658013D01*
X54741889Y-124648807D01*
X54741889Y-124639404D01*
X54749148Y-124612312D01*
X54761903Y-124548189D01*
X54774440Y-124517919D01*
X54780503Y-124495296D01*
X54792213Y-124475012D01*
X54804751Y-124444745D01*
X54841081Y-124390372D01*
X54855099Y-124366093D01*
X54861743Y-124359448D01*
X54866961Y-124351640D01*
X54946140Y-124272461D01*
X54953948Y-124267243D01*
X54960593Y-124260599D01*
X54984872Y-124246581D01*
X55039245Y-124210251D01*
X55069512Y-124197713D01*
X55089796Y-124186003D01*
X55112419Y-124179940D01*
X55142689Y-124167403D01*
X55206810Y-124154648D01*
X55233904Y-124147389D01*
X55243309Y-124147389D01*
X55252514Y-124145558D01*
X55364486Y-124145558D01*
X55373691Y-124147389D01*
G37*
G36*
X57405691Y-124147389D02*
G01*
X57415096Y-124147389D01*
X57442190Y-124154649D01*
X57506310Y-124167403D01*
X57536577Y-124179940D01*
X57559204Y-124186003D01*
X57579489Y-124197715D01*
X57609754Y-124210251D01*
X57664120Y-124246576D01*
X57688407Y-124260599D01*
X57695053Y-124267245D01*
X57702859Y-124272461D01*
X57782038Y-124351640D01*
X57787253Y-124359445D01*
X57793901Y-124366093D01*
X57807925Y-124390383D01*
X57844248Y-124444745D01*
X57856782Y-124475006D01*
X57868497Y-124495296D01*
X57874560Y-124517926D01*
X57887096Y-124548189D01*
X57899850Y-124612306D01*
X57907111Y-124639404D01*
X57907111Y-124648808D01*
X57908942Y-124658013D01*
X57908942Y-124769986D01*
X57907111Y-124779190D01*
X57907111Y-124788596D01*
X57899849Y-124815696D01*
X57887096Y-124879810D01*
X57874561Y-124910070D01*
X57868497Y-124932704D01*
X57856781Y-124952996D01*
X57844248Y-124983254D01*
X57807929Y-125037609D01*
X57793901Y-125061907D01*
X57787251Y-125068556D01*
X57782038Y-125076359D01*
X57702859Y-125155538D01*
X57695056Y-125160751D01*
X57688407Y-125167401D01*
X57664109Y-125181429D01*
X57609754Y-125217748D01*
X57579496Y-125230281D01*
X57559204Y-125241997D01*
X57536570Y-125248061D01*
X57506310Y-125260596D01*
X57442196Y-125273349D01*
X57415096Y-125280611D01*
X57405691Y-125280611D01*
X57396486Y-125282442D01*
X57284514Y-125282442D01*
X57275309Y-125280611D01*
X57265904Y-125280611D01*
X57238804Y-125273349D01*
X57174689Y-125260596D01*
X57144426Y-125248060D01*
X57121796Y-125241997D01*
X57101506Y-125230282D01*
X57071245Y-125217748D01*
X57016883Y-125181425D01*
X56992593Y-125167401D01*
X56985945Y-125160753D01*
X56978140Y-125155538D01*
X56898961Y-125076359D01*
X56893745Y-125068553D01*
X56887099Y-125061907D01*
X56873076Y-125037620D01*
X56836751Y-124983254D01*
X56824215Y-124952989D01*
X56812503Y-124932704D01*
X56806440Y-124910077D01*
X56793903Y-124879810D01*
X56781149Y-124815690D01*
X56773889Y-124788596D01*
X56773889Y-124779191D01*
X56772058Y-124769986D01*
X56772058Y-124658013D01*
X56773889Y-124648807D01*
X56773889Y-124639404D01*
X56781148Y-124612312D01*
X56793903Y-124548189D01*
X56806440Y-124517919D01*
X56812503Y-124495296D01*
X56824213Y-124475012D01*
X56836751Y-124444745D01*
X56873081Y-124390372D01*
X56887099Y-124366093D01*
X56893743Y-124359448D01*
X56898961Y-124351640D01*
X56978140Y-124272461D01*
X56985948Y-124267243D01*
X56992593Y-124260599D01*
X57016872Y-124246581D01*
X57071245Y-124210251D01*
X57101512Y-124197713D01*
X57121796Y-124186003D01*
X57144419Y-124179940D01*
X57174689Y-124167403D01*
X57238810Y-124154648D01*
X57265904Y-124147389D01*
X57275309Y-124147389D01*
X57284514Y-124145558D01*
X57396486Y-124145558D01*
X57405691Y-124147389D01*
G37*
G36*
X54079493Y-121580265D02*
G01*
X54268078Y-121641540D01*
X54444755Y-121731561D01*
X54605175Y-121848113D01*
X54745387Y-121988325D01*
X54861939Y-122148745D01*
X54951960Y-122325422D01*
X55013235Y-122514007D01*
X55044255Y-122709855D01*
X55044255Y-122908145D01*
X55013235Y-123103993D01*
X54951960Y-123292578D01*
X54861939Y-123469255D01*
X54745387Y-123629675D01*
X54605175Y-123769887D01*
X54444755Y-123886439D01*
X54268078Y-123976460D01*
X54079493Y-124037735D01*
X53883645Y-124068755D01*
X53685355Y-124068755D01*
X53489507Y-124037735D01*
X53300922Y-123976460D01*
X53124245Y-123886439D01*
X52963825Y-123769887D01*
X52823613Y-123629675D01*
X52707061Y-123469255D01*
X52617040Y-123292578D01*
X52555765Y-123103993D01*
X52524745Y-122908145D01*
X52524745Y-122709855D01*
X52555765Y-122514007D01*
X52617040Y-122325422D01*
X52707061Y-122148745D01*
X52823613Y-121988325D01*
X52963825Y-121848113D01*
X53124245Y-121731561D01*
X53300922Y-121641540D01*
X53489507Y-121580265D01*
X53685355Y-121549245D01*
X53883645Y-121549245D01*
X54079493Y-121580265D01*
G37*
G36*
X59159493Y-121580265D02*
G01*
X59348078Y-121641540D01*
X59524755Y-121731561D01*
X59685175Y-121848113D01*
X59825387Y-121988325D01*
X59941939Y-122148745D01*
X60031960Y-122325422D01*
X60093235Y-122514007D01*
X60124255Y-122709855D01*
X60124255Y-122908145D01*
X60093235Y-123103993D01*
X60031960Y-123292578D01*
X59941939Y-123469255D01*
X59825387Y-123629675D01*
X59685175Y-123769887D01*
X59524755Y-123886439D01*
X59348078Y-123976460D01*
X59159493Y-124037735D01*
X58963645Y-124068755D01*
X58765355Y-124068755D01*
X58569507Y-124037735D01*
X58380922Y-123976460D01*
X58204245Y-123886439D01*
X58043825Y-123769887D01*
X57903613Y-123629675D01*
X57787061Y-123469255D01*
X57697040Y-123292578D01*
X57635765Y-123103993D01*
X57604745Y-122908145D01*
X57604745Y-122709855D01*
X57635765Y-122514007D01*
X57697040Y-122325422D01*
X57787061Y-122148745D01*
X57903613Y-121988325D01*
X58043825Y-121848113D01*
X58204245Y-121731561D01*
X58380922Y-121641540D01*
X58569507Y-121580265D01*
X58765355Y-121549245D01*
X58963645Y-121549245D01*
X59159493Y-121580265D01*
G37*
G36*
X55869323Y-123009869D02*
G01*
X55975557Y-123071203D01*
X56062297Y-123157943D01*
X56123631Y-123264177D01*
X56155380Y-123382666D01*
X56155380Y-123505334D01*
X56123631Y-123623823D01*
X56062297Y-123730057D01*
X55975557Y-123816797D01*
X55869323Y-123878131D01*
X55750834Y-123909880D01*
X55628166Y-123909880D01*
X55509677Y-123878131D01*
X55403443Y-123816797D01*
X55316703Y-123730057D01*
X55255369Y-123623823D01*
X55223620Y-123505334D01*
X55223620Y-123382666D01*
X55255369Y-123264177D01*
X55316703Y-123157943D01*
X55403443Y-123071203D01*
X55509677Y-123009869D01*
X55628166Y-122978120D01*
X55750834Y-122978120D01*
X55869323Y-123009869D01*
G37*
G36*
X57139323Y-123009869D02*
G01*
X57245557Y-123071203D01*
X57332297Y-123157943D01*
X57393631Y-123264177D01*
X57425380Y-123382666D01*
X57425380Y-123505334D01*
X57393631Y-123623823D01*
X57332297Y-123730057D01*
X57245557Y-123816797D01*
X57139323Y-123878131D01*
X57020834Y-123909880D01*
X56898166Y-123909880D01*
X56779677Y-123878131D01*
X56673443Y-123816797D01*
X56586703Y-123730057D01*
X56525369Y-123623823D01*
X56493620Y-123505334D01*
X56493620Y-123382666D01*
X56525369Y-123264177D01*
X56586703Y-123157943D01*
X56673443Y-123071203D01*
X56779677Y-123009869D01*
X56898166Y-122978120D01*
X57020834Y-122978120D01*
X57139323Y-123009869D01*
G37*
G36*
X55869323Y-121739869D02*
G01*
X55975557Y-121801203D01*
X56062297Y-121887943D01*
X56123631Y-121994177D01*
X56155380Y-122112666D01*
X56155380Y-122235334D01*
X56123631Y-122353823D01*
X56062297Y-122460057D01*
X55975557Y-122546797D01*
X55869323Y-122608131D01*
X55750834Y-122639880D01*
X55628166Y-122639880D01*
X55509677Y-122608131D01*
X55403443Y-122546797D01*
X55316703Y-122460057D01*
X55255369Y-122353823D01*
X55223620Y-122235334D01*
X55223620Y-122112666D01*
X55255369Y-121994177D01*
X55316703Y-121887943D01*
X55403443Y-121801203D01*
X55509677Y-121739869D01*
X55628166Y-121708120D01*
X55750834Y-121708120D01*
X55869323Y-121739869D01*
G37*
G36*
X57139323Y-121739869D02*
G01*
X57245557Y-121801203D01*
X57332297Y-121887943D01*
X57393631Y-121994177D01*
X57425380Y-122112666D01*
X57425380Y-122235334D01*
X57393631Y-122353823D01*
X57332297Y-122460057D01*
X57245557Y-122546797D01*
X57139323Y-122608131D01*
X57020834Y-122639880D01*
X56898166Y-122639880D01*
X56779677Y-122608131D01*
X56673443Y-122546797D01*
X56586703Y-122460057D01*
X56525369Y-122353823D01*
X56493620Y-122235334D01*
X56493620Y-122112666D01*
X56525369Y-121994177D01*
X56586703Y-121887943D01*
X56673443Y-121801203D01*
X56779677Y-121739869D01*
X56898166Y-121708120D01*
X57020834Y-121708120D01*
X57139323Y-121739869D01*
G37*
G36*
X55869323Y-120469869D02*
G01*
X55975557Y-120531203D01*
X56062297Y-120617943D01*
X56123631Y-120724177D01*
X56155380Y-120842666D01*
X56155380Y-120965334D01*
X56123631Y-121083823D01*
X56062297Y-121190057D01*
X55975557Y-121276797D01*
X55869323Y-121338131D01*
X55750834Y-121369880D01*
X55628166Y-121369880D01*
X55509677Y-121338131D01*
X55403443Y-121276797D01*
X55316703Y-121190057D01*
X55255369Y-121083823D01*
X55223620Y-120965334D01*
X55223620Y-120842666D01*
X55255369Y-120724177D01*
X55316703Y-120617943D01*
X55403443Y-120531203D01*
X55509677Y-120469869D01*
X55628166Y-120438120D01*
X55750834Y-120438120D01*
X55869323Y-120469869D01*
G37*
G36*
X57139323Y-120469869D02*
G01*
X57245557Y-120531203D01*
X57332297Y-120617943D01*
X57393631Y-120724177D01*
X57425380Y-120842666D01*
X57425380Y-120965334D01*
X57393631Y-121083823D01*
X57332297Y-121190057D01*
X57245557Y-121276797D01*
X57139323Y-121338131D01*
X57020834Y-121369880D01*
X56898166Y-121369880D01*
X56779677Y-121338131D01*
X56673443Y-121276797D01*
X56586703Y-121190057D01*
X56525369Y-121083823D01*
X56493620Y-120965334D01*
X56493620Y-120842666D01*
X56525369Y-120724177D01*
X56586703Y-120617943D01*
X56673443Y-120531203D01*
X56779677Y-120469869D01*
X56898166Y-120438120D01*
X57020834Y-120438120D01*
X57139323Y-120469869D01*
G37*
G36*
X55869323Y-119199869D02*
G01*
X55975557Y-119261203D01*
X56062297Y-119347943D01*
X56123631Y-119454177D01*
X56155380Y-119572666D01*
X56155380Y-119695334D01*
X56123631Y-119813823D01*
X56062297Y-119920057D01*
X55975557Y-120006797D01*
X55869323Y-120068131D01*
X55750834Y-120099880D01*
X55628166Y-120099880D01*
X55509677Y-120068131D01*
X55403443Y-120006797D01*
X55316703Y-119920057D01*
X55255369Y-119813823D01*
X55223620Y-119695334D01*
X55223620Y-119572666D01*
X55255369Y-119454177D01*
X55316703Y-119347943D01*
X55403443Y-119261203D01*
X55509677Y-119199869D01*
X55628166Y-119168120D01*
X55750834Y-119168120D01*
X55869323Y-119199869D01*
G37*
G36*
X57139323Y-119199869D02*
G01*
X57245557Y-119261203D01*
X57332297Y-119347943D01*
X57393631Y-119454177D01*
X57425380Y-119572666D01*
X57425380Y-119695334D01*
X57393631Y-119813823D01*
X57332297Y-119920057D01*
X57245557Y-120006797D01*
X57139323Y-120068131D01*
X57020834Y-120099880D01*
X56898166Y-120099880D01*
X56779677Y-120068131D01*
X56673443Y-120006797D01*
X56586703Y-119920057D01*
X56525369Y-119813823D01*
X56493620Y-119695334D01*
X56493620Y-119572666D01*
X56525369Y-119454177D01*
X56586703Y-119347943D01*
X56673443Y-119261203D01*
X56779677Y-119199869D01*
X56898166Y-119168120D01*
X57020834Y-119168120D01*
X57139323Y-119199869D01*
G37*
G36*
X55869323Y-117929869D02*
G01*
X55975557Y-117991203D01*
X56062297Y-118077943D01*
X56123631Y-118184177D01*
X56155380Y-118302666D01*
X56155380Y-118425334D01*
X56123631Y-118543823D01*
X56062297Y-118650057D01*
X55975557Y-118736797D01*
X55869323Y-118798131D01*
X55750834Y-118829880D01*
X55628166Y-118829880D01*
X55509677Y-118798131D01*
X55403443Y-118736797D01*
X55316703Y-118650057D01*
X55255369Y-118543823D01*
X55223620Y-118425334D01*
X55223620Y-118302666D01*
X55255369Y-118184177D01*
X55316703Y-118077943D01*
X55403443Y-117991203D01*
X55509677Y-117929869D01*
X55628166Y-117898120D01*
X55750834Y-117898120D01*
X55869323Y-117929869D01*
G37*
G36*
X57139323Y-117929869D02*
G01*
X57245557Y-117991203D01*
X57332297Y-118077943D01*
X57393631Y-118184177D01*
X57425380Y-118302666D01*
X57425380Y-118425334D01*
X57393631Y-118543823D01*
X57332297Y-118650057D01*
X57245557Y-118736797D01*
X57139323Y-118798131D01*
X57020834Y-118829880D01*
X56898166Y-118829880D01*
X56779677Y-118798131D01*
X56673443Y-118736797D01*
X56586703Y-118650057D01*
X56525369Y-118543823D01*
X56493620Y-118425334D01*
X56493620Y-118302666D01*
X56525369Y-118184177D01*
X56586703Y-118077943D01*
X56673443Y-117991203D01*
X56779677Y-117929869D01*
X56898166Y-117898120D01*
X57020834Y-117898120D01*
X57139323Y-117929869D01*
G37*
G36*
X54079493Y-115865265D02*
G01*
X54268078Y-115926540D01*
X54444755Y-116016561D01*
X54605175Y-116133113D01*
X54745387Y-116273325D01*
X54861939Y-116433745D01*
X54951960Y-116610422D01*
X55013235Y-116799007D01*
X55044255Y-116994855D01*
X55044255Y-117193145D01*
X55013235Y-117388993D01*
X54951960Y-117577578D01*
X54861939Y-117754255D01*
X54745387Y-117914675D01*
X54605175Y-118054887D01*
X54444755Y-118171439D01*
X54268078Y-118261460D01*
X54079493Y-118322735D01*
X53883645Y-118353755D01*
X53685355Y-118353755D01*
X53489507Y-118322735D01*
X53300922Y-118261460D01*
X53124245Y-118171439D01*
X52963825Y-118054887D01*
X52823613Y-117914675D01*
X52707061Y-117754255D01*
X52617040Y-117577578D01*
X52555765Y-117388993D01*
X52524745Y-117193145D01*
X52524745Y-116994855D01*
X52555765Y-116799007D01*
X52617040Y-116610422D01*
X52707061Y-116433745D01*
X52823613Y-116273325D01*
X52963825Y-116133113D01*
X53124245Y-116016561D01*
X53300922Y-115926540D01*
X53489507Y-115865265D01*
X53685355Y-115834245D01*
X53883645Y-115834245D01*
X54079493Y-115865265D01*
G37*
G36*
X59159493Y-115865265D02*
G01*
X59348078Y-115926540D01*
X59524755Y-116016561D01*
X59685175Y-116133113D01*
X59825387Y-116273325D01*
X59941939Y-116433745D01*
X60031960Y-116610422D01*
X60093235Y-116799007D01*
X60124255Y-116994855D01*
X60124255Y-117193145D01*
X60093235Y-117388993D01*
X60031960Y-117577578D01*
X59941939Y-117754255D01*
X59825387Y-117914675D01*
X59685175Y-118054887D01*
X59524755Y-118171439D01*
X59348078Y-118261460D01*
X59159493Y-118322735D01*
X58963645Y-118353755D01*
X58765355Y-118353755D01*
X58569507Y-118322735D01*
X58380922Y-118261460D01*
X58204245Y-118171439D01*
X58043825Y-118054887D01*
X57903613Y-117914675D01*
X57787061Y-117754255D01*
X57697040Y-117577578D01*
X57635765Y-117388993D01*
X57604745Y-117193145D01*
X57604745Y-116994855D01*
X57635765Y-116799007D01*
X57697040Y-116610422D01*
X57787061Y-116433745D01*
X57903613Y-116273325D01*
X58043825Y-116133113D01*
X58204245Y-116016561D01*
X58380922Y-115926540D01*
X58569507Y-115865265D01*
X58765355Y-115834245D01*
X58963645Y-115834245D01*
X59159493Y-115865265D01*
G37*
G36*
X56389691Y-116527389D02*
G01*
X56399096Y-116527389D01*
X56426190Y-116534649D01*
X56490310Y-116547403D01*
X56520577Y-116559940D01*
X56543204Y-116566003D01*
X56563489Y-116577715D01*
X56593754Y-116590251D01*
X56648120Y-116626576D01*
X56672407Y-116640599D01*
X56679053Y-116647245D01*
X56686859Y-116652461D01*
X56766038Y-116731640D01*
X56771253Y-116739445D01*
X56777901Y-116746093D01*
X56791925Y-116770383D01*
X56828248Y-116824745D01*
X56840782Y-116855006D01*
X56852497Y-116875296D01*
X56858560Y-116897926D01*
X56871096Y-116928189D01*
X56883850Y-116992306D01*
X56891111Y-117019404D01*
X56891111Y-117028808D01*
X56892942Y-117038013D01*
X56892942Y-117149986D01*
X56891111Y-117159190D01*
X56891111Y-117168596D01*
X56883849Y-117195696D01*
X56871096Y-117259810D01*
X56858561Y-117290070D01*
X56852497Y-117312704D01*
X56840781Y-117332996D01*
X56828248Y-117363254D01*
X56791929Y-117417609D01*
X56777901Y-117441907D01*
X56771251Y-117448556D01*
X56766038Y-117456359D01*
X56686859Y-117535538D01*
X56679056Y-117540751D01*
X56672407Y-117547401D01*
X56648109Y-117561429D01*
X56593754Y-117597748D01*
X56563496Y-117610281D01*
X56543204Y-117621997D01*
X56520570Y-117628061D01*
X56490310Y-117640596D01*
X56426196Y-117653349D01*
X56399096Y-117660611D01*
X56389691Y-117660611D01*
X56380486Y-117662442D01*
X56268514Y-117662442D01*
X56259309Y-117660611D01*
X56249904Y-117660611D01*
X56222804Y-117653349D01*
X56158689Y-117640596D01*
X56128426Y-117628060D01*
X56105796Y-117621997D01*
X56085506Y-117610282D01*
X56055245Y-117597748D01*
X56000883Y-117561425D01*
X55976593Y-117547401D01*
X55969945Y-117540753D01*
X55962140Y-117535538D01*
X55882961Y-117456359D01*
X55877745Y-117448553D01*
X55871099Y-117441907D01*
X55857076Y-117417620D01*
X55820751Y-117363254D01*
X55808215Y-117332989D01*
X55796503Y-117312704D01*
X55790440Y-117290077D01*
X55777903Y-117259810D01*
X55765149Y-117195690D01*
X55757889Y-117168596D01*
X55757889Y-117159191D01*
X55756058Y-117149986D01*
X55756058Y-117038013D01*
X55757889Y-117028807D01*
X55757889Y-117019404D01*
X55765148Y-116992312D01*
X55777903Y-116928189D01*
X55790440Y-116897919D01*
X55796503Y-116875296D01*
X55808213Y-116855012D01*
X55820751Y-116824745D01*
X55857081Y-116770372D01*
X55871099Y-116746093D01*
X55877743Y-116739448D01*
X55882961Y-116731640D01*
X55962140Y-116652461D01*
X55969948Y-116647243D01*
X55976593Y-116640599D01*
X56000872Y-116626581D01*
X56055245Y-116590251D01*
X56085512Y-116577713D01*
X56105796Y-116566003D01*
X56128419Y-116559940D01*
X56158689Y-116547403D01*
X56222810Y-116534648D01*
X56249904Y-116527389D01*
X56259309Y-116527389D01*
X56268514Y-116525558D01*
X56380486Y-116525558D01*
X56389691Y-116527389D01*
G37*
G36*
X57741166Y-83508175D02*
G01*
X57872291Y-83562489D01*
X57990301Y-83641340D01*
X58090660Y-83741699D01*
X58169511Y-83859709D01*
X58223825Y-83990834D01*
X58251514Y-84130036D01*
X58251514Y-84271964D01*
X58223825Y-84411166D01*
X58169511Y-84542291D01*
X58090660Y-84660301D01*
X57990301Y-84760660D01*
X57872291Y-84839511D01*
X57741166Y-84893825D01*
X57601964Y-84921514D01*
X57460036Y-84921514D01*
X57320834Y-84893825D01*
X57189709Y-84839511D01*
X57071699Y-84760660D01*
X56971340Y-84660301D01*
X56892489Y-84542291D01*
X56838175Y-84411166D01*
X56810486Y-84271964D01*
X56810486Y-84130036D01*
X56838175Y-83990834D01*
X56892489Y-83859709D01*
X56971340Y-83741699D01*
X57071699Y-83641340D01*
X57189709Y-83562489D01*
X57320834Y-83508175D01*
X57460036Y-83480486D01*
X57601964Y-83480486D01*
X57741166Y-83508175D01*
G37*
G36*
X140672166Y-81730175D02*
G01*
X140803291Y-81784489D01*
X140921301Y-81863340D01*
X141021660Y-81963699D01*
X141100511Y-82081709D01*
X141154825Y-82212834D01*
X141182514Y-82352036D01*
X141182514Y-82493964D01*
X141154825Y-82633166D01*
X141100511Y-82764291D01*
X141021660Y-82882301D01*
X140921301Y-82982660D01*
X140803291Y-83061511D01*
X140672166Y-83115825D01*
X140532964Y-83143514D01*
X140391036Y-83143514D01*
X140251834Y-83115825D01*
X140120709Y-83061511D01*
X140002699Y-82982660D01*
X139902340Y-82882301D01*
X139823489Y-82764291D01*
X139769175Y-82633166D01*
X139741486Y-82493964D01*
X139741486Y-82352036D01*
X139769175Y-82212834D01*
X139823489Y-82081709D01*
X139902340Y-81963699D01*
X140002699Y-81863340D01*
X140120709Y-81784489D01*
X140251834Y-81730175D01*
X140391036Y-81702486D01*
X140532964Y-81702486D01*
X140672166Y-81730175D01*
G37*
M02*
