G04 #@! TF.GenerationSoftware,KiCad,Pcbnew,7.0.10*
G04 #@! TF.CreationDate,2024-03-29T07:52:02-04:00*
G04 #@! TF.ProjectId,GR8RAM,47523852-414d-42e6-9b69-6361645f7063,1.0*
G04 #@! TF.SameCoordinates,Original*
G04 #@! TF.FileFunction,Legend,Bot*
G04 #@! TF.FilePolarity,Positive*
%FSLAX46Y46*%
G04 Gerber Fmt 4.6, Leading zero omitted, Abs format (unit mm)*
G04 Created by KiCad (PCBNEW 7.0.10) date 2024-03-29 07:52:02*
%MOMM*%
%LPD*%
G01*
G04 APERTURE LIST*
G04 Aperture macros list*
%AMRoundRect*
0 Rectangle with rounded corners*
0 $1 Rounding radius*
0 $2 $3 $4 $5 $6 $7 $8 $9 X,Y pos of 4 corners*
0 Add a 4 corners polygon primitive as box body*
4,1,4,$2,$3,$4,$5,$6,$7,$8,$9,$2,$3,0*
0 Add four circle primitives for the rounded corners*
1,1,$1+$1,$2,$3*
1,1,$1+$1,$4,$5*
1,1,$1+$1,$6,$7*
1,1,$1+$1,$8,$9*
0 Add four rect primitives between the rounded corners*
20,1,$1+$1,$2,$3,$4,$5,0*
20,1,$1+$1,$4,$5,$6,$7,0*
20,1,$1+$1,$6,$7,$8,$9,0*
20,1,$1+$1,$8,$9,$2,$3,0*%
G04 Aperture macros list end*
%ADD10C,0.200000*%
%ADD11C,0.190500*%
%ADD12C,0.203200*%
%ADD13C,0.120000*%
%ADD14C,0.000000*%
%ADD15RoundRect,0.419100X0.419100X3.327100X-0.419100X3.327100X-0.419100X-3.327100X0.419100X-3.327100X0*%
%ADD16C,2.152400*%
%ADD17C,1.448000*%
%ADD18C,2.527300*%
%ADD19C,1.143000*%
%ADD20C,0.939800*%
G04 APERTURE END LIST*
D10*
X143383000Y-102362000D02*
X143002000Y-101981000D01*
X142113000Y-116459000D02*
X143383000Y-116459000D01*
X143383000Y-116459000D02*
X143002000Y-116840000D01*
X142113000Y-102362000D02*
X143383000Y-102362000D01*
X143383000Y-116459000D02*
X143002000Y-116078000D01*
X143383000Y-102362000D02*
X143002000Y-102743000D01*
X141732000Y-117665500D02*
X143637000Y-118745000D01*
X143637000Y-118745000D02*
X141732000Y-119824500D01*
X141732000Y-119824500D02*
X141732000Y-117665500D01*
D11*
X142141798Y-118745000D02*
X142103094Y-118706295D01*
X142103094Y-118706295D02*
X142064389Y-118745000D01*
X142064389Y-118745000D02*
X142103094Y-118783704D01*
X142103094Y-118783704D02*
X142141798Y-118745000D01*
X142141798Y-118745000D02*
X142064389Y-118745000D01*
X142374027Y-118745000D02*
X142838484Y-118783704D01*
X142838484Y-118783704D02*
X142877189Y-118745000D01*
X142877189Y-118745000D02*
X142838484Y-118706295D01*
X142838484Y-118706295D02*
X142374027Y-118745000D01*
X142374027Y-118745000D02*
X142877189Y-118745000D01*
D10*
X143313873Y-115122475D02*
X143313873Y-114396761D01*
X142043873Y-114759618D02*
X143313873Y-114759618D01*
X142043873Y-113791999D02*
X142104350Y-113912951D01*
X142104350Y-113912951D02*
X142164826Y-113973428D01*
X142164826Y-113973428D02*
X142285778Y-114033904D01*
X142285778Y-114033904D02*
X142648635Y-114033904D01*
X142648635Y-114033904D02*
X142769588Y-113973428D01*
X142769588Y-113973428D02*
X142830064Y-113912951D01*
X142830064Y-113912951D02*
X142890540Y-113791999D01*
X142890540Y-113791999D02*
X142890540Y-113610570D01*
X142890540Y-113610570D02*
X142830064Y-113489618D01*
X142830064Y-113489618D02*
X142769588Y-113429142D01*
X142769588Y-113429142D02*
X142648635Y-113368666D01*
X142648635Y-113368666D02*
X142285778Y-113368666D01*
X142285778Y-113368666D02*
X142164826Y-113429142D01*
X142164826Y-113429142D02*
X142104350Y-113489618D01*
X142104350Y-113489618D02*
X142043873Y-113610570D01*
X142043873Y-113610570D02*
X142043873Y-113791999D01*
X142890540Y-112945332D02*
X142043873Y-112703427D01*
X142043873Y-112703427D02*
X142648635Y-112461522D01*
X142648635Y-112461522D02*
X142043873Y-112219618D01*
X142043873Y-112219618D02*
X142890540Y-111977713D01*
X142043873Y-110949618D02*
X142709111Y-110949618D01*
X142709111Y-110949618D02*
X142830064Y-111010094D01*
X142830064Y-111010094D02*
X142890540Y-111131046D01*
X142890540Y-111131046D02*
X142890540Y-111372951D01*
X142890540Y-111372951D02*
X142830064Y-111493904D01*
X142104350Y-110949618D02*
X142043873Y-111070570D01*
X142043873Y-111070570D02*
X142043873Y-111372951D01*
X142043873Y-111372951D02*
X142104350Y-111493904D01*
X142104350Y-111493904D02*
X142225302Y-111554380D01*
X142225302Y-111554380D02*
X142346254Y-111554380D01*
X142346254Y-111554380D02*
X142467207Y-111493904D01*
X142467207Y-111493904D02*
X142527683Y-111372951D01*
X142527683Y-111372951D02*
X142527683Y-111070570D01*
X142527683Y-111070570D02*
X142588159Y-110949618D01*
X142043873Y-110344856D02*
X142890540Y-110344856D01*
X142648635Y-110344856D02*
X142769588Y-110284379D01*
X142769588Y-110284379D02*
X142830064Y-110223903D01*
X142830064Y-110223903D02*
X142890540Y-110102951D01*
X142890540Y-110102951D02*
X142890540Y-109981998D01*
X142043873Y-109014380D02*
X143313873Y-109014380D01*
X142104350Y-109014380D02*
X142043873Y-109135332D01*
X142043873Y-109135332D02*
X142043873Y-109377237D01*
X142043873Y-109377237D02*
X142104350Y-109498189D01*
X142104350Y-109498189D02*
X142164826Y-109558666D01*
X142164826Y-109558666D02*
X142285778Y-109619142D01*
X142285778Y-109619142D02*
X142648635Y-109619142D01*
X142648635Y-109619142D02*
X142769588Y-109558666D01*
X142769588Y-109558666D02*
X142830064Y-109498189D01*
X142830064Y-109498189D02*
X142890540Y-109377237D01*
X142890540Y-109377237D02*
X142890540Y-109135332D01*
X142890540Y-109135332D02*
X142830064Y-109014380D01*
X142043873Y-106716284D02*
X142648635Y-107139618D01*
X142043873Y-107441999D02*
X143313873Y-107441999D01*
X143313873Y-107441999D02*
X143313873Y-106958189D01*
X143313873Y-106958189D02*
X143253397Y-106837237D01*
X143253397Y-106837237D02*
X143192921Y-106776760D01*
X143192921Y-106776760D02*
X143071969Y-106716284D01*
X143071969Y-106716284D02*
X142890540Y-106716284D01*
X142890540Y-106716284D02*
X142769588Y-106776760D01*
X142769588Y-106776760D02*
X142709111Y-106837237D01*
X142709111Y-106837237D02*
X142648635Y-106958189D01*
X142648635Y-106958189D02*
X142648635Y-107441999D01*
X142104350Y-105688189D02*
X142043873Y-105809141D01*
X142043873Y-105809141D02*
X142043873Y-106051046D01*
X142043873Y-106051046D02*
X142104350Y-106171999D01*
X142104350Y-106171999D02*
X142225302Y-106232475D01*
X142225302Y-106232475D02*
X142709111Y-106232475D01*
X142709111Y-106232475D02*
X142830064Y-106171999D01*
X142830064Y-106171999D02*
X142890540Y-106051046D01*
X142890540Y-106051046D02*
X142890540Y-105809141D01*
X142890540Y-105809141D02*
X142830064Y-105688189D01*
X142830064Y-105688189D02*
X142709111Y-105627713D01*
X142709111Y-105627713D02*
X142588159Y-105627713D01*
X142588159Y-105627713D02*
X142467207Y-106232475D01*
X142043873Y-104539142D02*
X142709111Y-104539142D01*
X142709111Y-104539142D02*
X142830064Y-104599618D01*
X142830064Y-104599618D02*
X142890540Y-104720570D01*
X142890540Y-104720570D02*
X142890540Y-104962475D01*
X142890540Y-104962475D02*
X142830064Y-105083428D01*
X142104350Y-104539142D02*
X142043873Y-104660094D01*
X142043873Y-104660094D02*
X142043873Y-104962475D01*
X142043873Y-104962475D02*
X142104350Y-105083428D01*
X142104350Y-105083428D02*
X142225302Y-105143904D01*
X142225302Y-105143904D02*
X142346254Y-105143904D01*
X142346254Y-105143904D02*
X142467207Y-105083428D01*
X142467207Y-105083428D02*
X142527683Y-104962475D01*
X142527683Y-104962475D02*
X142527683Y-104660094D01*
X142527683Y-104660094D02*
X142588159Y-104539142D01*
X142043873Y-103934380D02*
X142890540Y-103934380D01*
X142648635Y-103934380D02*
X142769588Y-103873903D01*
X142769588Y-103873903D02*
X142830064Y-103813427D01*
X142830064Y-103813427D02*
X142890540Y-103692475D01*
X142890540Y-103692475D02*
X142890540Y-103571522D01*
D12*
X134396237Y-129473649D02*
X133854371Y-129473649D01*
X133854371Y-129473649D02*
X134396237Y-130286449D01*
X134396237Y-130286449D02*
X133854371Y-130286449D01*
X133544733Y-130286449D02*
X133544733Y-129473649D01*
X133080276Y-130286449D02*
X133428618Y-129821992D01*
X133080276Y-129473649D02*
X133544733Y-129938106D01*
X132693228Y-130247745D02*
X132693228Y-130286449D01*
X132693228Y-130286449D02*
X132731933Y-130363859D01*
X132731933Y-130363859D02*
X132770637Y-130402564D01*
X131299856Y-129512354D02*
X131377266Y-129473649D01*
X131377266Y-129473649D02*
X131493380Y-129473649D01*
X131493380Y-129473649D02*
X131609494Y-129512354D01*
X131609494Y-129512354D02*
X131686904Y-129589764D01*
X131686904Y-129589764D02*
X131725609Y-129667173D01*
X131725609Y-129667173D02*
X131764313Y-129821992D01*
X131764313Y-129821992D02*
X131764313Y-129938106D01*
X131764313Y-129938106D02*
X131725609Y-130092925D01*
X131725609Y-130092925D02*
X131686904Y-130170335D01*
X131686904Y-130170335D02*
X131609494Y-130247745D01*
X131609494Y-130247745D02*
X131493380Y-130286449D01*
X131493380Y-130286449D02*
X131415971Y-130286449D01*
X131415971Y-130286449D02*
X131299856Y-130247745D01*
X131299856Y-130247745D02*
X131261152Y-130209040D01*
X131261152Y-130209040D02*
X131261152Y-129938106D01*
X131261152Y-129938106D02*
X131415971Y-129938106D01*
X130641875Y-129860697D02*
X130912809Y-129860697D01*
X130912809Y-130286449D02*
X130912809Y-129473649D01*
X130912809Y-129473649D02*
X130525761Y-129473649D01*
X72877437Y-129860697D02*
X72761323Y-129899402D01*
X72761323Y-129899402D02*
X72722618Y-129938106D01*
X72722618Y-129938106D02*
X72683914Y-130015516D01*
X72683914Y-130015516D02*
X72683914Y-130131630D01*
X72683914Y-130131630D02*
X72722618Y-130209040D01*
X72722618Y-130209040D02*
X72761323Y-130247745D01*
X72761323Y-130247745D02*
X72838733Y-130286449D01*
X72838733Y-130286449D02*
X73148371Y-130286449D01*
X73148371Y-130286449D02*
X73148371Y-129473649D01*
X73148371Y-129473649D02*
X72877437Y-129473649D01*
X72877437Y-129473649D02*
X72800028Y-129512354D01*
X72800028Y-129512354D02*
X72761323Y-129551059D01*
X72761323Y-129551059D02*
X72722618Y-129628468D01*
X72722618Y-129628468D02*
X72722618Y-129705878D01*
X72722618Y-129705878D02*
X72761323Y-129783287D01*
X72761323Y-129783287D02*
X72800028Y-129821992D01*
X72800028Y-129821992D02*
X72877437Y-129860697D01*
X72877437Y-129860697D02*
X73148371Y-129860697D01*
X71909818Y-130286449D02*
X72374275Y-130286449D01*
X72142047Y-130286449D02*
X72142047Y-129473649D01*
X72142047Y-129473649D02*
X72219456Y-129589764D01*
X72219456Y-129589764D02*
X72296866Y-129667173D01*
X72296866Y-129667173D02*
X72374275Y-129705878D01*
X71406657Y-129473649D02*
X71329247Y-129473649D01*
X71329247Y-129473649D02*
X71251838Y-129512354D01*
X71251838Y-129512354D02*
X71213133Y-129551059D01*
X71213133Y-129551059D02*
X71174428Y-129628468D01*
X71174428Y-129628468D02*
X71135723Y-129783287D01*
X71135723Y-129783287D02*
X71135723Y-129976811D01*
X71135723Y-129976811D02*
X71174428Y-130131630D01*
X71174428Y-130131630D02*
X71213133Y-130209040D01*
X71213133Y-130209040D02*
X71251838Y-130247745D01*
X71251838Y-130247745D02*
X71329247Y-130286449D01*
X71329247Y-130286449D02*
X71406657Y-130286449D01*
X71406657Y-130286449D02*
X71484066Y-130247745D01*
X71484066Y-130247745D02*
X71522771Y-130209040D01*
X71522771Y-130209040D02*
X71561476Y-130131630D01*
X71561476Y-130131630D02*
X71600180Y-129976811D01*
X71600180Y-129976811D02*
X71600180Y-129783287D01*
X71600180Y-129783287D02*
X71561476Y-129628468D01*
X71561476Y-129628468D02*
X71522771Y-129551059D01*
X71522771Y-129551059D02*
X71484066Y-129512354D01*
X71484066Y-129512354D02*
X71406657Y-129473649D01*
X70322924Y-130209040D02*
X70361628Y-130247745D01*
X70361628Y-130247745D02*
X70477743Y-130286449D01*
X70477743Y-130286449D02*
X70555152Y-130286449D01*
X70555152Y-130286449D02*
X70671266Y-130247745D01*
X70671266Y-130247745D02*
X70748676Y-130170335D01*
X70748676Y-130170335D02*
X70787381Y-130092925D01*
X70787381Y-130092925D02*
X70826085Y-129938106D01*
X70826085Y-129938106D02*
X70826085Y-129821992D01*
X70826085Y-129821992D02*
X70787381Y-129667173D01*
X70787381Y-129667173D02*
X70748676Y-129589764D01*
X70748676Y-129589764D02*
X70671266Y-129512354D01*
X70671266Y-129512354D02*
X70555152Y-129473649D01*
X70555152Y-129473649D02*
X70477743Y-129473649D01*
X70477743Y-129473649D02*
X70361628Y-129512354D01*
X70361628Y-129512354D02*
X70322924Y-129551059D01*
D13*
X70294500Y-117729000D02*
X69659500Y-117729000D01*
X70294500Y-118364000D02*
X70294500Y-117729000D01*
%LPC*%
D14*
G36*
X139700000Y-139446000D02*
G01*
X139192000Y-139954000D01*
X74168000Y-139954000D01*
X73660000Y-139446000D01*
X73660000Y-132080000D01*
X139700000Y-132080000D01*
X139700000Y-139446000D01*
G37*
D15*
X137160000Y-135282000D03*
X134620000Y-135282000D03*
X132080000Y-135282000D03*
X129540000Y-135282000D03*
X127000000Y-135282000D03*
X124460000Y-135282000D03*
X121920000Y-135282000D03*
X119380000Y-135282000D03*
X116840000Y-135282000D03*
X114300000Y-135282000D03*
X111760000Y-135282000D03*
X109220000Y-135282000D03*
X106680000Y-135282000D03*
X104140000Y-135282000D03*
X101600000Y-135282000D03*
X99060000Y-135282000D03*
X96520000Y-135282000D03*
X93980000Y-135282000D03*
X91440000Y-135282000D03*
X88900000Y-135282000D03*
X86360000Y-135282000D03*
X83820000Y-135282000D03*
X81280000Y-135282000D03*
X78740000Y-135282000D03*
X76200000Y-135282000D03*
D16*
X140462000Y-129540000D03*
D17*
X140462000Y-82423000D03*
X57023000Y-84709000D03*
X143002000Y-127000000D03*
D18*
X71564500Y-117094000D03*
D19*
X69024500Y-117094000D03*
D18*
X66484500Y-117094000D03*
X71564500Y-122809000D03*
X66484500Y-122809000D03*
D19*
X70040500Y-124714000D03*
X68008500Y-124714000D03*
D17*
X48133000Y-127000000D03*
D18*
X71564500Y-117094000D03*
D19*
X69024500Y-117094000D03*
D18*
X66484500Y-117094000D03*
X71564500Y-122809000D03*
X66484500Y-122809000D03*
D19*
X70040500Y-124714000D03*
X68008500Y-124714000D03*
D20*
X69659500Y-118364000D03*
X69659500Y-119634000D03*
X69659500Y-120904000D03*
X69659500Y-122174000D03*
X69659500Y-123444000D03*
X68389500Y-123444000D03*
X68389500Y-122174000D03*
X68389500Y-120904000D03*
X68389500Y-119634000D03*
X68389500Y-118364000D03*
%LPD*%
M02*
